<svg width="24" height="25" viewBox="0 0 24 25" fill="none" xmlns="http://www.w3.org/2000/svg">
<path d="M14.4183 5.53663C13.9422 5.44869 13.505 5.75249 13.4144 6.21717C13.3238 6.68185 13.6285 7.13554 14.0916 7.22647C15.4859 7.49829 16.5624 8.57755 16.8353 9.97659C16.913 10.3793 17.2675 10.6731 17.6759 10.6731C17.7306 10.6731 17.7854 10.6681 17.8412 10.6581C18.3043 10.5652 18.609 10.1125 18.5184 9.64681C18.1111 7.55725 16.5027 5.94335 14.4183 5.53663Z" fill="black"/>
<path d="M14.356 2.05529C14.1329 2.02332 13.9088 2.08926 13.7305 2.23114C13.5473 2.37502 13.4328 2.58285 13.4079 2.81566C13.3551 3.28626 13.6947 3.71191 14.1648 3.76486C17.4064 4.12656 19.926 6.65145 20.2905 9.90272C20.3393 10.3384 20.7048 10.6671 21.141 10.6671C21.1739 10.6671 21.2058 10.6651 21.2386 10.6611C21.4667 10.6361 21.6699 10.5232 21.8133 10.3434C21.9557 10.1635 22.0204 9.93969 21.9945 9.71089C21.5404 5.65428 18.4003 2.50591 14.356 2.05529Z" fill="black"/>
<path fill-rule="evenodd" clip-rule="evenodd" d="M11.0317 13.0183C15.0208 17.0056 15.9258 12.3927 18.4656 14.9304C20.9143 17.378 22.3216 17.8683 19.2192 20.9694C18.8306 21.2816 16.3616 25.0383 7.6846 16.365C-0.993478 7.69067 2.76158 5.21948 3.07397 4.83105C6.18387 1.72141 6.66586 3.13673 9.11449 5.58431C11.6544 8.1231 7.04266 9.03088 11.0317 13.0183Z" fill="black"/>
</svg>
