<svg width="82" height="24" viewBox="0 0 82 24" fill="none" xmlns="http://www.w3.org/2000/svg">
<path opacity="0.8" d="M12.6882 9.49219H9.88849C9.83736 9.12997 9.73295 8.80824 9.57528 8.52699C9.41761 8.24148 9.2152 7.99858 8.96804 7.7983C8.72088 7.59801 8.43537 7.4446 8.11151 7.33807C7.7919 7.23153 7.4446 7.17827 7.0696 7.17827C6.39205 7.17827 5.80185 7.34659 5.29901 7.68324C4.79617 8.01562 4.40625 8.50142 4.12926 9.14062C3.85227 9.77557 3.71378 10.5469 3.71378 11.4545C3.71378 12.3878 3.85227 13.1719 4.12926 13.8068C4.41051 14.4418 4.80256 14.9212 5.3054 15.245C5.80824 15.5689 6.38992 15.7308 7.05043 15.7308C7.42117 15.7308 7.7642 15.6818 8.07955 15.5838C8.39915 15.4858 8.68253 15.343 8.92969 15.1555C9.17685 14.9638 9.38139 14.7315 9.54332 14.4588C9.70952 14.1861 9.82457 13.875 9.88849 13.5256L12.6882 13.5384C12.6158 14.1392 12.4347 14.7188 12.1449 15.277C11.8594 15.831 11.4737 16.3274 10.9879 16.7663C10.5064 17.201 9.93111 17.5462 9.26207 17.8018C8.5973 18.0533 7.84517 18.179 7.00568 18.179C5.83807 18.179 4.79403 17.9148 3.87358 17.3864C2.95739 16.858 2.23295 16.093 1.70028 15.0916C1.17188 14.0902 0.90767 12.8778 0.90767 11.4545C0.90767 10.027 1.17614 8.8125 1.71307 7.81108C2.25 6.80966 2.97869 6.04687 3.89915 5.52273C4.8196 4.99432 5.85511 4.73011 7.00568 4.73011C7.7642 4.73011 8.46733 4.83665 9.11506 5.04972C9.76705 5.26278 10.3445 5.57386 10.8473 5.98295C11.3501 6.38778 11.7592 6.88423 12.0746 7.4723C12.3942 8.06037 12.5987 8.73366 12.6882 9.49219ZM17.5248 4.90909V18H14.8018V4.90909H17.5248ZM24.3222 18.1918C23.3293 18.1918 22.4706 17.9808 21.7462 17.5589C21.026 17.1328 20.4699 16.5405 20.0779 15.782C19.6858 15.0192 19.4898 14.1349 19.4898 13.1293C19.4898 12.1151 19.6858 11.2287 20.0779 10.4702C20.4699 9.70739 21.026 9.11506 21.7462 8.69318C22.4706 8.26705 23.3293 8.05398 24.3222 8.05398C25.3151 8.05398 26.1716 8.26705 26.8918 8.69318C27.6162 9.11506 28.1745 9.70739 28.5665 10.4702C28.9585 11.2287 29.1546 12.1151 29.1546 13.1293C29.1546 14.1349 28.9585 15.0192 28.5665 15.782C28.1745 16.5405 27.6162 17.1328 26.8918 17.5589C26.1716 17.9808 25.3151 18.1918 24.3222 18.1918ZM24.335 16.0824C24.7867 16.0824 25.1638 15.9545 25.4664 15.6989C25.7689 15.4389 25.9969 15.0852 26.1503 14.6378C26.308 14.1903 26.3868 13.6811 26.3868 13.1101C26.3868 12.5391 26.308 12.0298 26.1503 11.5824C25.9969 11.1349 25.7689 10.7812 25.4664 10.5213C25.1638 10.2614 24.7867 10.1314 24.335 10.1314C23.879 10.1314 23.4955 10.2614 23.1844 10.5213C22.8776 10.7812 22.6453 11.1349 22.4877 11.5824C22.3343 12.0298 22.2576 12.5391 22.2576 13.1101C22.2576 13.6811 22.3343 14.1903 22.4877 14.6378C22.6453 15.0852 22.8776 15.4389 23.1844 15.6989C23.4955 15.9545 23.879 16.0824 24.335 16.0824ZM39.2742 10.9815L36.7813 11.1349C36.7387 10.9219 36.6471 10.7301 36.5064 10.5597C36.3658 10.3849 36.1804 10.2464 35.9503 10.1442C35.7245 10.0376 35.4539 9.98438 35.1385 9.98438C34.7167 9.98438 34.3608 10.0739 34.0711 10.2528C33.7813 10.4276 33.6364 10.6619 33.6364 10.956C33.6364 11.1903 33.7302 11.3885 33.9177 11.5504C34.1052 11.7124 34.4269 11.8423 34.8829 11.9403L36.6599 12.2983C37.6144 12.4943 38.326 12.8097 38.7948 13.2443C39.2635 13.679 39.4979 14.25 39.4979 14.9574C39.4979 15.6009 39.3083 16.1655 38.929 16.6513C38.554 17.1371 38.0384 17.5163 37.3822 17.7891C36.7302 18.0575 35.978 18.1918 35.1258 18.1918C33.826 18.1918 32.7905 17.9212 32.0192 17.38C31.2522 16.8345 30.8026 16.093 30.6705 15.1555L33.3488 15.0149C33.4297 15.4112 33.6258 15.7138 33.9368 15.9226C34.2479 16.1271 34.6464 16.2294 35.1322 16.2294C35.6094 16.2294 35.9929 16.1378 36.2827 15.9545C36.5768 15.767 36.7259 15.5263 36.7302 15.2322C36.7259 14.9851 36.6215 14.7827 36.417 14.625C36.2124 14.4631 35.8971 14.3395 35.4709 14.2543L33.7706 13.9155C32.8118 13.7237 32.0981 13.3913 31.6293 12.9183C31.1648 12.4453 30.9326 11.8423 30.9326 11.1094C30.9326 10.4787 31.103 9.93537 31.4439 9.4794C31.7891 9.02344 32.2728 8.67188 32.8949 8.42472C33.5214 8.17756 34.2543 8.05398 35.0938 8.05398C36.3339 8.05398 37.3097 8.31605 38.0214 8.8402C38.7373 9.36435 39.1549 10.0781 39.2742 10.9815ZM45.867 18.1918C44.8571 18.1918 43.9878 17.9872 43.2591 17.5781C42.5346 17.1648 41.9764 16.581 41.5843 15.8267C41.1923 15.0682 40.9963 14.1712 40.9963 13.1357C40.9963 12.1257 41.1923 11.2393 41.5843 10.4766C41.9764 9.71378 42.5282 9.11932 43.2399 8.69318C43.9558 8.26705 44.7953 8.05398 45.7584 8.05398C46.4061 8.05398 47.0091 8.15838 47.5673 8.36719C48.1298 8.57173 48.6199 8.88068 49.0375 9.29403C49.4593 9.70739 49.7875 10.2273 50.0218 10.8537C50.2562 11.4759 50.3734 12.2045 50.3734 13.0398V13.7876H42.0829V12.1001H47.8102C47.8102 11.7081 47.725 11.3608 47.5545 11.0582C47.3841 10.7557 47.1476 10.5192 46.845 10.3487C46.5467 10.174 46.1994 10.0866 45.8031 10.0866C45.3897 10.0866 45.0233 10.1825 44.7037 10.3743C44.3883 10.5618 44.1412 10.8153 43.9622 11.1349C43.7832 11.4503 43.6916 11.8018 43.6873 12.1896V13.794C43.6873 14.2798 43.7768 14.6996 43.9558 15.0533C44.139 15.407 44.3968 15.6797 44.7292 15.8714C45.0616 16.0632 45.4558 16.1591 45.9118 16.1591C46.2143 16.1591 46.4913 16.1165 46.7427 16.0312C46.9941 15.946 47.2093 15.8182 47.3883 15.6477C47.5673 15.4773 47.7037 15.2685 47.7974 15.0213L50.3159 15.1875C50.188 15.7926 49.926 16.321 49.5297 16.7727C49.1376 17.2202 48.6305 17.5696 48.0084 17.821C47.3905 18.0682 46.6767 18.1918 45.867 18.1918Z" fill="#121314"/>
<path fill-rule="evenodd" clip-rule="evenodd" d="M75.7071 7.76765C76.0976 7.37713 76.0976 6.74396 75.7071 6.35344C75.3166 5.96292 74.6834 5.96292 74.2929 6.35344L70 10.6463L65.7071 6.35344C65.3166 5.96292 64.6834 5.96292 64.2929 6.35344C63.9024 6.74397 63.9024 7.37713 64.2929 7.76765L68.5858 12.0605L64.2929 16.3534C63.9024 16.744 63.9024 17.3771 64.2929 17.7677C64.6834 18.1582 65.3166 18.1582 65.7071 17.7677L70 13.4748L74.2929 17.7677C74.6834 18.1582 75.3166 18.1582 75.7071 17.7677C76.0976 17.3771 76.0976 16.744 75.7071 16.3534L71.4142 12.0605L75.7071 7.76765Z" fill="#1C40C9"/>
</svg>
