<svg width="50" height="150" viewBox="0 0 50 150" fill="none" xmlns="http://www.w3.org/2000/svg">
<path d="M4 150C1.79086 150 0 148.209 0 146L0 4C0 1.79086 1.79086 0 4 0H50L50 150H4Z" fill="#1C40C9"/>
<path d="M31.1084 106.169V103.834C31.874 103.88 32.5537 104.091 33.1475 104.466C33.7412 104.836 34.2048 105.354 34.5381 106.021C34.8714 106.683 35.0381 107.479 35.0381 108.412C35.0381 109.141 34.9131 109.794 34.6631 110.373C34.4079 110.951 34.0433 111.446 33.5693 111.857C33.0954 112.263 32.5225 112.573 31.8506 112.787C31.1787 113 30.4261 113.107 29.5928 113.107H28.8037C27.9704 113.107 27.2178 112.998 26.5459 112.779C25.8688 112.555 25.2933 112.237 24.8193 111.826C24.3454 111.409 23.9808 110.912 23.7256 110.334C23.4704 109.755 23.3428 109.11 23.3428 108.396C23.3428 107.448 23.5146 106.649 23.8584 105.998C24.2021 105.341 24.6761 104.834 25.2803 104.474C25.8844 104.11 26.5719 103.891 27.3428 103.818V106.162C26.8844 106.188 26.4964 106.279 26.1787 106.435C25.8558 106.591 25.6136 106.828 25.4521 107.146C25.2855 107.459 25.2021 107.875 25.2021 108.396C25.2021 108.787 25.2751 109.128 25.4209 109.419C25.5667 109.711 25.7881 109.956 26.085 110.154C26.3818 110.352 26.7568 110.5 27.21 110.599C27.6579 110.693 28.1839 110.74 28.7881 110.74H29.5928C30.1813 110.74 30.6995 110.696 31.1475 110.607C31.5902 110.518 31.9652 110.383 32.2725 110.201C32.5745 110.013 32.8037 109.774 32.96 109.482C33.111 109.185 33.1865 108.828 33.1865 108.412C33.1865 107.922 33.1084 107.518 32.9521 107.201C32.7959 106.883 32.5641 106.641 32.2568 106.474C31.9495 106.302 31.5667 106.201 31.1084 106.169ZM30.7412 102.951H30.5771C29.9574 102.951 29.387 102.863 28.8662 102.686C28.3402 102.509 27.8844 102.251 27.499 101.912C27.1136 101.574 26.8141 101.157 26.6006 100.662C26.3818 100.167 26.2725 99.5997 26.2725 98.9591C26.2725 98.3185 26.3818 97.7482 26.6006 97.2482C26.8141 96.7482 27.1136 96.3289 27.499 95.9904C27.8844 95.6466 28.3402 95.3862 28.8662 95.2091C29.387 95.032 29.9574 94.9435 30.5771 94.9435H30.7412C31.3558 94.9435 31.9261 95.032 32.4521 95.2091C32.973 95.3862 33.4287 95.6466 33.8193 95.9904C34.2048 96.3289 34.5042 96.7456 34.7178 97.2404C34.9313 97.7351 35.0381 98.3029 35.0381 98.9435C35.0381 99.5841 34.9313 100.154 34.7178 100.654C34.5042 101.149 34.2048 101.568 33.8193 101.912C33.4287 102.251 32.973 102.509 32.4521 102.686C31.9261 102.863 31.3558 102.951 30.7412 102.951ZM30.5771 100.701H30.7412C31.0954 100.701 31.4261 100.67 31.7334 100.608C32.0407 100.545 32.3115 100.446 32.5459 100.311C32.7751 100.17 32.9548 99.9878 33.085 99.7638C33.2152 99.5398 33.2803 99.2664 33.2803 98.9435C33.2803 98.631 33.2152 98.3628 33.085 98.1388C32.9548 97.9148 32.7751 97.7351 32.5459 97.5997C32.3115 97.4643 32.0407 97.3654 31.7334 97.3029C31.4261 97.2351 31.0954 97.2013 30.7412 97.2013H30.5771C30.2334 97.2013 29.9105 97.2351 29.6084 97.3029C29.3011 97.3654 29.0303 97.4669 28.7959 97.6075C28.5563 97.743 28.3688 97.9226 28.2334 98.1466C28.098 98.3706 28.0303 98.6414 28.0303 98.9591C28.0303 99.2768 28.098 99.5476 28.2334 99.7716C28.3688 99.9904 28.5563 100.17 28.7959 100.311C29.0303 100.446 29.3011 100.545 29.6084 100.608C29.9105 100.67 30.2334 100.701 30.5771 100.701ZM28.2334 91.5143H34.8818V93.7643H26.4287V91.655L28.2334 91.5143ZM30.3584 91.8425V92.4518C29.7334 92.4518 29.1709 92.3711 28.6709 92.2097C28.1657 92.0482 27.736 91.8216 27.3818 91.53C27.0225 91.2383 26.749 90.8919 26.5615 90.4909C26.3688 90.0847 26.2725 89.6315 26.2725 89.1315C26.2725 88.7357 26.3298 88.3737 26.4443 88.0456C26.5589 87.7175 26.7412 87.4362 26.9912 87.2018C27.2412 86.9623 27.5719 86.78 27.9834 86.655C28.3949 86.5248 28.8975 86.4597 29.4912 86.4597H34.8818V88.7253H29.4834C29.1084 88.7253 28.8167 88.7774 28.6084 88.8815C28.4001 88.9857 28.2542 89.1393 28.1709 89.3425C28.0824 89.5404 28.0381 89.7852 28.0381 90.0768C28.0381 90.3789 28.098 90.6419 28.2178 90.8659C28.3376 91.0847 28.5042 91.2669 28.7178 91.4128C28.9261 91.5534 29.1709 91.6602 29.4521 91.7331C29.7334 91.806 30.0355 91.8425 30.3584 91.8425ZM26.4287 80.7649H28.0225V85.6868H26.4287V80.7649ZM24.3428 84.468V82.218H32.335C32.5798 82.218 32.7673 82.1868 32.8975 82.1243C33.0277 82.0566 33.1188 81.9576 33.1709 81.8274C33.2178 81.6972 33.2412 81.5331 33.2412 81.3352C33.2412 81.1946 33.236 81.0696 33.2256 80.9602C33.21 80.8456 33.1943 80.7493 33.1787 80.6711L34.835 80.6633C34.8975 80.856 34.9469 81.0644 34.9834 81.2883C35.0199 81.5123 35.0381 81.7597 35.0381 82.0305C35.0381 82.5253 34.9574 82.9576 34.7959 83.3274C34.6292 83.692 34.3636 83.9732 33.999 84.1711C33.6344 84.3691 33.1553 84.468 32.5615 84.468H24.3428ZM32.9756 75.0779H29.21C28.9391 75.0779 28.7074 75.1222 28.5146 75.2108C28.3167 75.2993 28.1631 75.4373 28.0537 75.6248C27.9443 75.8071 27.8896 76.0441 27.8896 76.3358C27.8896 76.5858 27.9339 76.8019 28.0225 76.9842C28.1058 77.1665 28.2282 77.3071 28.3896 77.4061C28.5459 77.505 28.7308 77.5545 28.9443 77.5545L28.9443 79.8045C28.585 79.8045 28.2438 79.7212 27.9209 79.5545C27.598 79.3878 27.3141 79.1457 27.0693 78.8279C26.8193 78.5102 26.624 78.1326 26.4834 77.6951C26.3428 77.2524 26.2725 76.7576 26.2725 76.2108C26.2725 75.5545 26.3818 74.9712 26.6006 74.4608C26.8193 73.9503 27.1475 73.5493 27.585 73.2576C28.0225 72.9608 28.5693 72.8123 29.2256 72.8123H32.8428C33.3063 72.8123 33.6865 72.7837 33.9834 72.7264C34.2751 72.6691 34.5303 72.5858 34.749 72.4764H34.8818V74.7498C34.6527 74.8592 34.3662 74.9425 34.0225 74.9998C33.6735 75.0519 33.3245 75.0779 32.9756 75.0779ZM29.7334 74.7811L31.0068 74.7654V76.0233C31.0068 76.3201 31.0407 76.5779 31.1084 76.7967C31.1761 77.0154 31.2725 77.1951 31.3975 77.3358C31.5173 77.4764 31.6579 77.5805 31.8193 77.6483C31.9808 77.7108 32.1579 77.742 32.3506 77.742C32.5433 77.742 32.7178 77.6977 32.874 77.6092C33.0251 77.5207 33.1449 77.393 33.2334 77.2264C33.3167 77.0597 33.3584 76.8644 33.3584 76.6404C33.3584 76.3019 33.2907 76.0076 33.1553 75.7576C33.0199 75.5076 32.8532 75.3149 32.6553 75.1795C32.4574 75.0389 32.2699 74.966 32.0928 74.9608L33.0459 74.367C33.2594 74.4503 33.4808 74.5649 33.71 74.7108C33.9391 74.8514 34.1553 75.0311 34.3584 75.2498C34.5563 75.4686 34.7204 75.7316 34.8506 76.0389C34.9756 76.3462 35.0381 76.7108 35.0381 77.1326C35.0381 77.6691 34.9313 78.1561 34.7178 78.5936C34.499 79.0259 34.1995 79.3696 33.8193 79.6248C33.4339 79.8748 32.9964 79.9998 32.5068 79.9998C32.0641 79.9998 31.6709 79.9165 31.3271 79.7498C30.9834 79.5832 30.6943 79.3384 30.46 79.0154C30.2204 78.6873 30.0407 78.2785 29.9209 77.7889C29.7959 77.2993 29.7334 76.7316 29.7334 76.0858V74.7811ZM33.2803 67.7426C33.2803 67.4665 33.2282 67.2217 33.124 67.0082C33.0146 66.7946 32.8636 66.628 32.6709 66.5082C32.473 66.3832 32.2412 66.3181 31.9756 66.3129V64.1957C32.5693 64.2009 33.098 64.3597 33.5615 64.6722C34.0199 64.9847 34.3818 65.404 34.6475 65.9301C34.9079 66.4561 35.0381 67.0446 35.0381 67.6957C35.0381 68.3519 34.9287 68.9248 34.71 69.4144C34.4912 69.8988 34.1891 70.3025 33.8037 70.6254C33.4131 70.9483 32.96 71.1905 32.4443 71.3519C31.9235 71.5134 31.3662 71.5941 30.7725 71.5941H30.5459C29.9469 71.5941 29.3896 71.5134 28.874 71.3519C28.3532 71.1905 27.9001 70.9483 27.5146 70.6254C27.124 70.3025 26.8193 69.8988 26.6006 69.4144C26.3818 68.9301 26.2725 68.3623 26.2725 67.7113C26.2725 67.0186 26.4053 66.4118 26.6709 65.891C26.9365 65.365 27.3167 64.9535 27.8115 64.6566C28.3011 64.3545 28.8818 64.2009 29.5537 64.1957V66.3129C29.2725 66.3181 29.0173 66.378 28.7881 66.4926C28.5589 66.6019 28.3766 66.7634 28.2412 66.9769C28.1006 67.1853 28.0303 67.4431 28.0303 67.7504C28.0303 68.0785 28.1006 68.3467 28.2412 68.5551C28.3766 68.7634 28.5641 68.9248 28.8037 69.0394C29.0381 69.154 29.3063 69.2347 29.6084 69.2816C29.9053 69.3233 30.2178 69.3441 30.5459 69.3441H30.7725C31.1006 69.3441 31.4157 69.3233 31.7178 69.2816C32.0199 69.24 32.2881 69.1618 32.5225 69.0472C32.7568 68.9275 32.9417 68.7634 33.0771 68.5551C33.2126 68.3467 33.2803 68.0759 33.2803 67.7426ZM26.4287 58.9072H28.0225V63.829H26.4287V58.9072ZM24.3428 62.6103V60.3603H32.335C32.5798 60.3603 32.7673 60.329 32.8975 60.2665C33.0277 60.1988 33.1188 60.0999 33.1709 59.9697C33.2178 59.8395 33.2412 59.6754 33.2412 59.4775C33.2412 59.3369 33.236 59.2119 33.2256 59.1025C33.21 58.9879 33.1943 58.8915 33.1787 58.8134L34.835 58.8056C34.8975 58.9983 34.9469 59.2066 34.9834 59.4306C35.0199 59.6546 35.0381 59.902 35.0381 60.1728C35.0381 60.6676 34.9574 61.0999 34.7959 61.4697C34.6292 61.8343 34.3636 62.1155 33.999 62.3134C33.6344 62.5113 33.1553 62.6103 32.5615 62.6103H24.3428ZM23.5068 47.5333V45.1973H31.0225C31.8975 45.1973 32.6344 45.3848 33.2334 45.7598C33.8324 46.1296 34.2829 46.6426 34.585 47.2989C34.887 47.9499 35.0381 48.6999 35.0381 49.5489C35.0381 50.3978 34.887 51.1531 34.585 51.8145C34.2829 52.4708 33.8324 52.9864 33.2334 53.3614C32.6344 53.7312 31.8975 53.9161 31.0225 53.9161H23.5068V51.5723H31.0225C31.5329 51.5723 31.9495 51.4916 32.2725 51.3301C32.5954 51.1687 32.8324 50.9369 32.9834 50.6348C33.1344 50.3275 33.21 49.9656 33.21 49.5489C33.21 49.1218 33.1344 48.7598 32.9834 48.463C32.8324 48.1609 32.5954 47.9317 32.2725 47.7755C31.9495 47.614 31.5329 47.5333 31.0225 47.5333H23.5068ZM32.5459 38.9948C32.3844 38.9948 32.2386 39.0416 32.1084 39.1354C31.9782 39.2291 31.8584 39.4036 31.749 39.6588C31.6344 39.9088 31.5303 40.2708 31.4365 40.7448C31.3428 41.1718 31.2256 41.5703 31.085 41.9401C30.9391 42.3047 30.7646 42.6224 30.5615 42.8932C30.3584 43.1588 30.1188 43.3672 29.8428 43.5182C29.5615 43.6692 29.2412 43.7448 28.8818 43.7448C28.5277 43.7448 28.1943 43.6692 27.8818 43.5182C27.5693 43.3619 27.2933 43.1406 27.0537 42.8541C26.8089 42.5625 26.6188 42.2083 26.4834 41.7916C26.3428 41.3698 26.2725 40.8958 26.2725 40.3698C26.2725 39.6354 26.3896 39.0052 26.624 38.4791C26.8584 37.9479 27.1813 37.5416 27.5928 37.2604C27.999 36.9739 28.4626 36.8307 28.9834 36.8307V39.0807C28.7646 39.0807 28.5693 39.1276 28.3975 39.2213C28.2204 39.3099 28.0824 39.4505 27.9834 39.6432C27.8792 39.8307 27.8271 40.0755 27.8271 40.3776C27.8271 40.6276 27.8714 40.8437 27.96 41.026C28.0433 41.2083 28.1579 41.3489 28.3037 41.4479C28.4443 41.5416 28.6006 41.5885 28.7725 41.5885C28.9027 41.5885 29.0199 41.5625 29.124 41.5104C29.223 41.4531 29.3141 41.3619 29.3975 41.2369C29.4808 41.1119 29.5589 40.9505 29.6318 40.7526C29.6995 40.5494 29.762 40.2994 29.8193 40.0026C29.9443 39.3932 30.1084 38.8489 30.3115 38.3698C30.5094 37.8906 30.7803 37.5104 31.124 37.2291C31.4626 36.9479 31.9079 36.8073 32.46 36.8073C32.835 36.8073 33.1787 36.8906 33.4912 37.0573C33.8037 37.2239 34.0771 37.4635 34.3115 37.776C34.5407 38.0885 34.7204 38.4635 34.8506 38.901C34.9756 39.3333 35.0381 39.8203 35.0381 40.3619C35.0381 41.1484 34.8975 41.8151 34.6162 42.3619C34.335 42.9036 33.9782 43.3151 33.5459 43.5963C33.1084 43.8724 32.6605 44.0104 32.2021 44.0104V41.8776C32.5094 41.8672 32.7568 41.789 32.9443 41.6432C33.1318 41.4922 33.2673 41.3021 33.3506 41.0729C33.4339 40.8385 33.4756 40.5859 33.4756 40.3151C33.4756 40.0234 33.4365 39.7812 33.3584 39.5885C33.2751 39.3958 33.1657 39.25 33.0303 39.151C32.8896 39.0468 32.7282 38.9948 32.5459 38.9948Z" fill="white"/>
</svg>
