<svg width="199" height="65" viewBox="0 0 199 65" fill="none" xmlns="http://www.w3.org/2000/svg">
<path d="M124.62 18.5852C124.644 18.2972 124.668 17.8412 124.668 17.2412C124.668 15.3452 124.068 13.7852 122.892 12.6092C121.716 11.4332 120.18 10.8332 118.284 10.8332C116.436 10.8332 114.828 11.4812 113.484 12.8012C112.164 14.1212 111.492 15.6812 111.492 17.5292C111.492 19.4972 112.164 21.1052 113.508 22.3772C114.876 23.6252 116.532 24.2492 118.524 24.2492C121.14 24.2492 122.964 23.2892 124.044 21.3452L121.332 19.5692C120.756 20.5052 119.604 21.1052 118.476 21.1052C116.868 21.1052 115.524 20.1452 115.308 18.5852H124.62ZM115.404 16.1132C115.476 15.6092 115.764 15.1052 116.268 14.6252C116.772 14.1212 117.42 13.8812 118.188 13.8812C119.892 13.8812 120.828 14.9852 120.924 16.1132H115.404ZM131.099 4.40118H127.331V23.9612H131.099V4.40118ZM136.397 4.35318C135.149 4.35318 134.093 5.40918 134.093 6.68118C134.093 7.95318 135.149 8.98518 136.397 8.98518C137.717 8.98518 138.749 7.95318 138.749 6.68118C138.749 5.36118 137.717 4.35318 136.397 4.35318ZM138.317 23.9612V11.1452H134.549V23.9612H138.317ZM149.688 20.7932C149.424 20.8652 149.136 20.8892 148.824 20.8892C147.36 20.8892 146.592 20.3132 146.592 18.8492V14.3852H149.76V11.1452H146.592V7.13718H142.896V11.1452H140.544V14.3852H142.848V19.3052C142.848 22.3052 144.6 24.1292 147.936 24.1292C148.56 24.1292 149.136 24.0572 149.688 23.8892V20.7932ZM164.745 18.5852C164.769 18.2972 164.793 17.8412 164.793 17.2412C164.793 15.3452 164.193 13.7852 163.017 12.6092C161.841 11.4332 160.305 10.8332 158.409 10.8332C156.561 10.8332 154.953 11.4812 153.609 12.8012C152.289 14.1212 151.617 15.6812 151.617 17.5292C151.617 19.4972 152.289 21.1052 153.633 22.3772C155.001 23.6252 156.657 24.2492 158.649 24.2492C161.265 24.2492 163.089 23.2892 164.169 21.3452L161.457 19.5692C160.881 20.5052 159.729 21.1052 158.601 21.1052C156.993 21.1052 155.649 20.1452 155.433 18.5852H164.745ZM155.529 16.1132C155.601 15.6092 155.889 15.1052 156.393 14.6252C156.897 14.1212 157.545 13.8812 158.313 13.8812C160.017 13.8812 160.953 14.9852 161.049 16.1132H155.529Z" fill="#040628"/>
<path d="M117.155 51.8968C117.707 51.8968 118.211 51.8248 118.619 51.7048V50.1448C118.355 50.2168 117.971 50.2408 117.467 50.2408C116.075 50.2408 115.379 49.6408 115.379 48.4408V40.6408H118.619V38.9848H115.379V35.2888H113.531V38.9848H111.155V40.6408H113.531V48.4888C113.531 50.7688 114.731 51.8968 117.155 51.8968ZM132.855 45.9688C132.879 45.8488 132.879 45.6328 132.879 45.3448C132.879 43.4008 132.351 41.8408 131.295 40.6168C130.239 39.3928 128.751 38.7688 126.831 38.7688C125.079 38.7688 123.591 39.4168 122.391 40.7368C121.191 42.0568 120.591 43.5928 120.591 45.3688C120.591 47.2168 121.215 48.8008 122.463 50.0968C123.711 51.3688 125.247 52.0168 127.095 52.0168C129.399 52.0168 131.439 50.8168 132.519 48.7048L131.127 47.7928C130.383 49.3288 128.871 50.3608 127.071 50.3608C125.823 50.3608 124.767 49.9528 123.903 49.1128C123.039 48.2728 122.559 47.2168 122.487 45.9688H132.855ZM122.511 44.3848C122.679 43.2808 123.159 42.3448 123.975 41.5768C124.791 40.7848 125.751 40.4008 126.831 40.4008C129.231 40.4008 130.719 41.9848 130.983 44.3848H122.511ZM137.089 45.3208C137.089 43.9528 137.521 42.8008 138.385 41.8648C139.273 40.9048 140.377 40.4248 141.721 40.4248C143.833 40.4248 145.153 41.6248 145.729 43.2328L147.361 42.5128C146.617 40.3768 144.601 38.7688 141.721 38.7688C139.897 38.7688 138.337 39.4168 137.065 40.6888C135.793 41.9608 135.169 43.5448 135.169 45.3928C135.169 47.2888 135.793 48.8728 137.041 50.1448C138.313 51.3928 139.849 52.0168 141.697 52.0168C144.601 52.0168 146.617 50.4088 147.409 48.2008L145.777 47.4808C145.033 49.4008 143.665 50.3608 141.721 50.3608C140.353 50.3608 139.249 49.8568 138.385 48.8728C137.521 47.8888 137.089 46.6888 137.089 45.3208ZM161.607 51.8008V43.8808C161.607 40.8088 159.831 38.7448 156.759 38.7448C154.863 38.7448 153.399 39.5848 152.367 41.2888V32.2648H150.495V51.8008H152.367V44.5048C152.367 43.3528 152.727 42.3928 153.447 41.6248C154.167 40.8328 155.079 40.4488 156.183 40.4488C158.487 40.4488 159.735 41.9608 159.735 44.3368V51.8008H161.607ZM176.771 51.8008V43.8808C176.771 40.8088 174.995 38.7448 171.923 38.7448C169.979 38.7448 168.515 39.6088 167.507 41.3368V38.9848H165.659V51.8008H167.531V44.5048C167.531 43.3528 167.891 42.3928 168.611 41.6248C169.331 40.8328 170.243 40.4488 171.347 40.4488C173.651 40.4488 174.899 41.9608 174.899 44.3368V51.8008H176.771ZM192.151 45.9688C192.175 45.8488 192.175 45.6328 192.175 45.3448C192.175 43.4008 191.647 41.8408 190.591 40.6168C189.535 39.3928 188.047 38.7688 186.127 38.7688C184.375 38.7688 182.887 39.4168 181.687 40.7368C180.487 42.0568 179.887 43.5928 179.887 45.3688C179.887 47.2168 180.511 48.8008 181.759 50.0968C183.007 51.3688 184.543 52.0168 186.391 52.0168C188.695 52.0168 190.735 50.8168 191.815 48.7048L190.423 47.7928C189.679 49.3288 188.167 50.3608 186.367 50.3608C185.119 50.3608 184.063 49.9528 183.199 49.1128C182.335 48.2728 181.855 47.2168 181.783 45.9688H192.151ZM181.807 44.3848C181.975 43.2808 182.455 42.3448 183.271 41.5768C184.087 40.7848 185.047 40.4008 186.127 40.4008C188.527 40.4008 190.015 41.9848 190.279 44.3848H181.807Z" fill="#1C40C9"/>
<path d="M42.1366 28.9378C42.1345 30.8038 41.3922 32.5927 40.0727 33.9122C38.7531 35.2316 36.964 35.9738 35.0978 35.9759H10.6309L18.7624 21.8916H35.0978C36.9641 21.898 38.7519 22.6426 40.0708 23.9629C41.3897 25.2832 42.1324 27.0717 42.1366 28.9378Z" fill="#1C40C9"/>
<path d="M42.1362 47.3524C42.1341 49.2183 41.3918 51.0073 40.0722 52.3267C38.7527 53.6462 36.9636 54.3884 35.0974 54.3905H0L8.13155 40.3142H35.0974C36.9629 40.3185 38.7508 41.0613 40.0699 42.3803C41.389 43.6993 42.132 45.487 42.1362 47.3524Z" fill="#040628"/>
<path d="M103.596 3.48291L95.4649 17.5592L74.204 54.3891H57.9409L79.2099 17.5592H21.2686L29.3921 3.48291H103.596Z" fill="#040628"/>
</svg>
