<svg width="199" height="65" viewBox="0 0 199 65" fill="none" xmlns="http://www.w3.org/2000/svg">
<path d="M124.62 18.612C124.644 18.324 124.668 17.868 124.668 17.268C124.668 15.372 124.068 13.812 122.892 12.636C121.716 11.46 120.18 10.86 118.284 10.86C116.436 10.86 114.828 11.508 113.484 12.828C112.164 14.148 111.492 15.708 111.492 17.556C111.492 19.524 112.164 21.132 113.508 22.404C114.876 23.652 116.532 24.276 118.524 24.276C121.14 24.276 122.964 23.316 124.044 21.372L121.332 19.596C120.756 20.532 119.604 21.132 118.476 21.132C116.868 21.132 115.524 20.172 115.308 18.612H124.62ZM115.404 16.14C115.476 15.636 115.764 15.132 116.268 14.652C116.772 14.148 117.42 13.908 118.188 13.908C119.892 13.908 120.828 15.012 120.924 16.14H115.404ZM131.099 4.42804H127.331V23.988H131.099V4.42804ZM136.397 4.38004C135.149 4.38004 134.093 5.43604 134.093 6.70804C134.093 7.98004 135.149 9.01204 136.397 9.01204C137.717 9.01204 138.749 7.98004 138.749 6.70804C138.749 5.38804 137.717 4.38004 136.397 4.38004ZM138.317 23.988V11.172H134.549V23.988H138.317ZM149.688 20.82C149.424 20.892 149.136 20.916 148.824 20.916C147.36 20.916 146.592 20.34 146.592 18.876V14.412H149.76V11.172H146.592V7.16404H142.896V11.172H140.544V14.412H142.848V19.332C142.848 22.332 144.6 24.156 147.936 24.156C148.56 24.156 149.136 24.084 149.688 23.916V20.82ZM164.745 18.612C164.769 18.324 164.793 17.868 164.793 17.268C164.793 15.372 164.193 13.812 163.017 12.636C161.841 11.46 160.305 10.86 158.409 10.86C156.561 10.86 154.953 11.508 153.609 12.828C152.289 14.148 151.617 15.708 151.617 17.556C151.617 19.524 152.289 21.132 153.633 22.404C155.001 23.652 156.657 24.276 158.649 24.276C161.265 24.276 163.089 23.316 164.169 21.372L161.457 19.596C160.881 20.532 159.729 21.132 158.601 21.132C156.993 21.132 155.649 20.172 155.433 18.612H164.745ZM155.529 16.14C155.601 15.636 155.889 15.132 156.393 14.652C156.897 14.148 157.545 13.908 158.313 13.908C160.017 13.908 160.953 15.012 161.049 16.14H155.529Z" fill="white"/>
<path d="M117.155 51.9219C117.707 51.9219 118.211 51.8499 118.619 51.7299V50.1699C118.355 50.2419 117.971 50.2659 117.467 50.2659C116.075 50.2659 115.379 49.6659 115.379 48.4659V40.6659H118.619V39.0099H115.379V35.3139H113.531V39.0099H111.155V40.6659H113.531V48.5139C113.531 50.7939 114.731 51.9219 117.155 51.9219ZM132.855 45.9939C132.879 45.8739 132.879 45.6579 132.879 45.3699C132.879 43.4259 132.351 41.8659 131.295 40.6419C130.239 39.4179 128.751 38.7939 126.831 38.7939C125.079 38.7939 123.591 39.4419 122.391 40.7619C121.191 42.0819 120.591 43.6179 120.591 45.3939C120.591 47.2419 121.215 48.8259 122.463 50.1219C123.711 51.3939 125.247 52.0419 127.095 52.0419C129.399 52.0419 131.439 50.8419 132.519 48.7299L131.127 47.8179C130.383 49.3539 128.871 50.3859 127.071 50.3859C125.823 50.3859 124.767 49.9779 123.903 49.1379C123.039 48.2979 122.559 47.2419 122.487 45.9939H132.855ZM122.511 44.4099C122.679 43.3059 123.159 42.3699 123.975 41.6019C124.791 40.8099 125.751 40.4259 126.831 40.4259C129.231 40.4259 130.719 42.0099 130.983 44.4099H122.511ZM137.089 45.3459C137.089 43.9779 137.521 42.8259 138.385 41.8899C139.273 40.9299 140.377 40.4499 141.721 40.4499C143.833 40.4499 145.153 41.6499 145.729 43.2579L147.361 42.5379C146.617 40.4019 144.601 38.7939 141.721 38.7939C139.897 38.7939 138.337 39.4419 137.065 40.7139C135.793 41.9859 135.169 43.5699 135.169 45.4179C135.169 47.3139 135.793 48.8979 137.041 50.1699C138.313 51.4179 139.849 52.0419 141.697 52.0419C144.601 52.0419 146.617 50.4339 147.409 48.2259L145.777 47.5059C145.033 49.4259 143.665 50.3859 141.721 50.3859C140.353 50.3859 139.249 49.8819 138.385 48.8979C137.521 47.9139 137.089 46.7139 137.089 45.3459ZM161.607 51.8259V43.9059C161.607 40.8339 159.831 38.7699 156.759 38.7699C154.863 38.7699 153.399 39.6099 152.367 41.3139V32.2899H150.495V51.8259H152.367V44.5299C152.367 43.3779 152.727 42.4179 153.447 41.6499C154.167 40.8579 155.079 40.4739 156.183 40.4739C158.487 40.4739 159.735 41.9859 159.735 44.3619V51.8259H161.607ZM176.771 51.8259V43.9059C176.771 40.8339 174.995 38.7699 171.923 38.7699C169.979 38.7699 168.515 39.6339 167.507 41.3619V39.0099H165.659V51.8259H167.531V44.5299C167.531 43.3779 167.891 42.4179 168.611 41.6499C169.331 40.8579 170.243 40.4739 171.347 40.4739C173.651 40.4739 174.899 41.9859 174.899 44.3619V51.8259H176.771ZM192.151 45.9939C192.175 45.8739 192.175 45.6579 192.175 45.3699C192.175 43.4259 191.647 41.8659 190.591 40.6419C189.535 39.4179 188.047 38.7939 186.127 38.7939C184.375 38.7939 182.887 39.4419 181.687 40.7619C180.487 42.0819 179.887 43.6179 179.887 45.3939C179.887 47.2419 180.511 48.8259 181.759 50.1219C183.007 51.3939 184.543 52.0419 186.391 52.0419C188.695 52.0419 190.735 50.8419 191.815 48.7299L190.423 47.8179C189.679 49.3539 188.167 50.3859 186.367 50.3859C185.119 50.3859 184.063 49.9779 183.199 49.1379C182.335 48.2979 181.855 47.2419 181.783 45.9939H192.151ZM181.807 44.4099C181.975 43.3059 182.455 42.3699 183.271 41.6019C184.087 40.8099 185.047 40.4259 186.127 40.4259C188.527 40.4259 190.015 42.0099 190.279 44.4099H181.807Z" fill="white"/>
<path d="M42.1366 28.963C42.1345 30.8289 41.3922 32.6177 40.0727 33.9371C38.7531 35.2564 36.964 35.9986 35.0978 36.0007H10.6309L18.7624 21.9172H35.0978C36.9641 21.9236 38.7519 22.6682 40.0708 23.9884C41.3897 25.3086 42.1324 27.097 42.1366 28.963Z" fill="white"/>
<path d="M42.1362 47.3766C42.1341 49.2425 41.3918 51.0313 40.0722 52.3507C38.7527 53.6701 36.9636 54.4122 35.0974 54.4143H0L8.13155 40.3389H35.0974C36.9629 40.3431 38.7508 41.0859 40.0699 42.4049C41.389 43.7238 42.132 45.5114 42.1362 47.3766Z" fill="white"/>
<path d="M103.596 3.50952L95.4649 17.585L74.204 54.4126H57.9409L79.2099 17.585H21.2686L29.3921 3.50952H103.596Z" fill="white"/>
</svg>
