<svg width="462" height="205" viewBox="0 0 462 205" fill="none" xmlns="http://www.w3.org/2000/svg">
<path d="M96.7274 151.407C111.686 126.644 148.686 116.993 178.811 125.153" stroke="#F4F4F4"/>
<path d="M172.962 132.419C172.673 132.177 172.613 131.764 172.804 131.452L172.869 131.362L178.75 124.354L171.742 118.474C171.453 118.232 171.393 117.819 171.584 117.508L171.649 117.418C171.891 117.129 172.304 117.069 172.616 117.26L172.706 117.325L180.289 123.688C180.578 123.93 180.638 124.343 180.447 124.654L180.382 124.744L174.019 132.326C173.752 132.644 173.279 132.685 172.962 132.419Z" fill="white"/>
<rect width="24" height="23.9964" transform="matrix(-0.996196 0.0871428 -0.0871687 -0.996193 189.321 135.474)" stroke="#F4F4F4"/>
<path d="M6.4834 172.214L8.5962 171.764C9.17004 171.643 9.69185 171.455 10.1616 171.203C10.6418 170.948 11.0353 170.619 11.3422 170.216C11.6573 169.8 11.8678 169.302 11.9738 168.724C12.0798 168.145 12.0519 167.475 11.89 166.713C11.7392 166.004 11.5103 165.415 11.2034 164.945C10.8943 164.466 10.5216 164.098 10.0855 163.842C9.6598 163.583 9.16947 163.431 8.61453 163.386C8.0678 163.327 7.47621 163.366 6.83976 163.501L4.72696 163.95L6.4834 172.214ZM3.15618 163.025L6.58361 162.296C7.42873 162.116 8.21256 162.059 8.9351 162.123C9.66807 162.186 10.3263 162.384 10.9098 162.718C11.4934 163.052 11.9865 163.525 12.3893 164.137C12.8025 164.747 13.1056 165.506 13.2985 166.414C13.4937 167.332 13.5173 168.161 13.3693 168.902C13.2191 169.631 12.9412 170.274 12.5358 170.829C12.1281 171.374 11.6085 171.828 10.9769 172.191C10.343 172.544 9.63486 172.803 8.85235 172.97L5.42492 173.698L3.15618 163.025ZM14.1084 163.608L15.3305 163.201L17.037 171.23L15.785 171.496L14.1084 163.608ZM13.4292 161.413C13.3782 161.173 13.4143 160.959 13.5376 160.769C13.669 160.566 13.8547 160.44 14.0947 160.389C14.3451 160.335 14.5715 160.375 14.7739 160.506C14.9846 160.625 15.1154 160.804 15.1664 161.044C15.2174 161.284 15.172 161.506 15.0301 161.711C14.8964 161.903 14.7044 162.026 14.454 162.079C14.214 162.13 13.9939 162.095 13.7937 161.974C13.6017 161.84 13.4802 161.653 13.4292 161.413ZM21.5642 163.381C21.0972 163.339 20.6871 163.333 20.3339 163.365C19.9889 163.383 19.6756 163.423 19.3939 163.483C19.0287 163.56 18.7398 163.714 18.527 163.945C18.3248 164.173 18.2536 164.428 18.3135 164.71C18.3771 164.958 18.5321 165.149 18.7785 165.282C19.0249 165.415 19.2992 165.526 19.6015 165.614C19.9121 165.69 20.252 165.776 20.6214 165.872C21.0012 165.965 21.3593 166.085 21.6958 166.232C22.0427 166.376 22.3412 166.575 22.5911 166.827C22.841 167.079 23.0144 167.408 23.1113 167.812C23.194 168.253 23.1725 168.639 23.0468 168.971C22.9293 169.29 22.7433 169.57 22.4889 169.809C22.2427 170.036 21.9593 170.216 21.6387 170.35C21.3204 170.494 21.0151 170.597 20.723 170.659C20.3474 170.739 19.9517 170.801 19.5359 170.846C19.1306 170.888 18.6839 170.891 18.196 170.853L18.1913 169.676C18.6874 169.701 19.1351 169.704 19.5345 169.685C19.9316 169.655 20.2554 169.613 20.5058 169.56C20.6936 169.52 20.8717 169.461 21.0402 169.381C21.2192 169.299 21.3739 169.207 21.5045 169.103C21.6328 168.988 21.7254 168.859 21.7822 168.716C21.8495 168.571 21.8665 168.42 21.8333 168.264C21.7607 167.974 21.6095 167.75 21.3796 167.591C21.1474 167.423 20.8634 167.292 20.5276 167.2C20.1999 167.095 19.8473 167.001 19.4698 166.918C19.1004 166.822 18.7423 166.702 18.3953 166.557C18.0566 166.4 17.7571 166.197 17.4968 165.947C17.2342 165.686 17.0564 165.337 16.9632 164.899C16.8967 164.586 16.9162 164.293 17.0217 164.019C17.1354 163.734 17.3008 163.486 17.5179 163.276C17.7433 163.054 17.9984 162.869 18.2832 162.721C18.5763 162.56 18.8689 162.449 19.161 162.387C19.4636 162.323 19.8082 162.277 20.1949 162.249C20.5794 162.211 21.0301 162.202 21.5471 162.223L21.5642 163.381ZM28.1092 161.843C27.923 161.839 27.6689 161.849 27.3471 161.874C27.023 161.888 26.6992 161.93 26.3758 161.998C25.9063 162.098 25.5402 162.274 25.2775 162.526C25.0253 162.776 24.8479 163.07 24.7452 163.408C24.6404 163.736 24.5955 164.089 24.6105 164.467C24.6233 164.836 24.6663 165.192 24.7395 165.536C24.8526 166.068 25.018 166.513 25.2357 166.87C25.4512 167.217 25.694 167.487 25.9641 167.68C26.2446 167.871 26.5432 167.993 26.8597 168.046C27.174 168.088 27.4929 168.075 27.8163 168.006C28.0354 167.96 28.2419 167.905 28.4357 167.842C28.6377 167.766 28.8189 167.695 28.9791 167.628C29.1476 167.549 29.3046 167.466 29.45 167.381L29.9233 168.376C29.7175 168.485 29.5251 168.581 29.3462 168.663C29.1673 168.744 28.9507 168.828 28.6965 168.915C28.4528 169 28.1848 169.073 27.8927 169.135C27.3188 169.257 26.7921 169.293 26.3124 169.242C25.8327 169.191 25.402 169.037 25.0202 168.781C24.6489 168.521 24.3243 168.149 24.0465 167.663C23.7791 167.174 23.5656 166.554 23.4059 165.803C23.2506 165.073 23.2167 164.426 23.3041 163.862C23.3996 163.285 23.58 162.8 23.8451 162.406C24.108 162.001 24.4367 161.675 24.8312 161.427C25.2362 161.177 25.6734 161.003 26.1429 160.903C26.3933 160.85 26.6366 160.814 26.8728 160.797C27.1172 160.767 27.3314 160.748 27.5154 160.742C27.733 160.739 27.9401 160.739 28.1368 160.741L28.1092 161.843ZM30.7918 164.233C31.0069 165.245 31.392 165.954 31.9471 166.359C32.5104 166.752 33.1781 166.867 33.9502 166.702C34.7118 166.541 35.2544 166.169 35.578 165.588C35.9015 165.006 35.959 164.225 35.7506 163.245C35.5288 162.201 35.134 161.473 34.5663 161.059C34.009 160.643 33.3391 160.518 32.5566 160.685C31.774 160.851 31.2284 161.234 30.9198 161.834C30.6193 162.421 30.5766 163.221 30.7918 164.233ZM29.4582 164.5C29.2896 163.707 29.2751 163.023 29.4146 162.449C29.5519 161.863 29.7803 161.373 30.0998 160.978C30.4171 160.572 30.7816 160.26 31.1932 160.042C31.613 159.811 32.0211 159.654 32.4176 159.569C32.7932 159.489 33.2134 159.466 33.6782 159.498C34.1513 159.517 34.6089 159.643 35.051 159.876C35.4909 160.099 35.8915 160.445 36.2528 160.913C36.6119 161.371 36.8757 161.997 37.0443 162.79C37.2195 163.614 37.2343 164.325 37.0888 164.923C36.9537 165.519 36.7275 166.019 36.4102 166.425C36.0907 166.82 35.7199 167.128 35.2979 167.348C34.8781 167.579 34.4752 167.736 34.0891 167.818C33.6927 167.902 33.262 167.928 32.7972 167.896C32.3324 167.864 31.88 167.737 31.4401 167.514C31.0084 167.279 30.6107 166.922 30.2472 166.443C29.8942 165.962 29.6311 165.314 29.4582 164.5ZM36.4329 158.879L37.8101 158.587L40.9004 163.737L41.5075 164.9L41.5232 164.896L41.6203 163.584L42.4739 157.595L43.7886 157.316L42.41 165.837L41.0015 166.136L36.4329 158.879ZM51.8621 163.631C51.6376 163.755 51.4005 163.871 51.1508 163.979C50.9114 164.084 50.6397 164.191 50.3356 164.299C50.0419 164.405 49.7281 164.494 49.3942 164.565C48.8725 164.676 48.3718 164.706 47.8922 164.655C47.4125 164.604 46.9713 164.453 46.5687 164.2C46.1661 163.948 45.8113 163.587 45.5044 163.118C45.2057 162.636 44.9765 162.02 44.8168 161.268C44.6727 160.59 44.6402 159.976 44.7193 159.424C44.7962 158.863 44.9598 158.375 45.2101 157.962C45.4685 157.537 45.798 157.189 46.1985 156.918C46.6095 156.645 47.0758 156.454 47.5975 156.343C48.1087 156.234 48.5732 156.239 48.991 156.357C49.4087 156.476 49.7742 156.681 50.0873 156.975C50.4087 157.255 50.6755 157.613 50.8879 158.048C51.1085 158.47 51.272 158.931 51.3784 159.432L51.29 160.171L46.235 161.245C46.3037 161.569 46.4142 161.883 46.5664 162.189C46.7186 162.494 46.9216 162.757 47.1753 162.975C47.4394 163.192 47.7509 163.349 48.1098 163.447C48.477 163.533 48.9057 163.524 49.3961 163.419C49.7091 163.353 49.9927 163.276 50.2469 163.189C50.4989 163.092 50.7143 163.003 50.8932 162.921C51.0804 162.827 51.2508 162.731 51.4044 162.633L51.8621 163.631ZM50.0129 159.395C49.9974 159.322 49.9474 159.164 49.8628 158.92C49.7783 158.676 49.6498 158.431 49.4774 158.184C49.305 157.937 49.0766 157.735 48.7923 157.577C48.5057 157.409 48.1642 157.367 47.7677 157.451C47.3295 157.545 46.9895 157.715 46.7477 157.963C46.5037 158.2 46.3249 158.462 46.2112 158.747C46.0974 159.033 46.037 159.313 46.0299 159.587C46.0227 159.862 46.0358 160.077 46.069 160.233L50.0129 159.395ZM52.0316 156.889C51.9806 156.649 51.8747 156.279 51.7139 155.778L52.8387 155.376L53.2068 156.492L53.2224 156.488C53.3592 156.208 53.4975 155.961 53.6371 155.746C53.7768 155.531 53.9272 155.341 54.0884 155.176C54.2578 154.998 54.4312 154.89 54.6086 154.852C54.8463 154.791 55.1858 154.746 55.6268 154.718L55.6013 155.983C55.2437 155.993 54.9982 156.018 54.8647 156.057C54.6874 156.095 54.5173 156.219 54.3546 156.428C54.1918 156.637 54.0573 156.851 53.9512 157.07C53.8122 157.339 53.685 157.639 53.5698 157.968L54.6875 163.227L53.4355 163.493L52.0316 156.889ZM61.1785 157.774C61.3937 158.786 61.7788 159.495 62.3339 159.901C62.8972 160.293 63.5649 160.408 64.3369 160.244C65.0986 160.082 65.6412 159.71 65.9647 159.129C66.2883 158.547 66.3458 157.766 66.1374 156.786C65.9156 155.742 65.5208 155.014 64.9531 154.6C64.3958 154.184 63.7258 154.059 62.9433 154.226C62.1608 154.392 61.6152 154.775 61.3065 155.375C61.0061 155.963 60.9634 156.762 61.1785 157.774ZM59.8449 158.041C59.6764 157.248 59.6619 156.565 59.8014 155.99C59.9387 155.404 60.1671 154.914 60.4866 154.519C60.8039 154.114 61.1683 153.802 61.5799 153.583C61.9998 153.352 62.4079 153.195 62.8044 153.11C63.18 153.03 63.6002 153.007 64.065 153.039C64.5381 153.058 64.9956 153.184 65.4378 153.418C65.8777 153.64 66.2783 153.986 66.6396 154.454C66.9987 154.912 67.2625 155.538 67.431 156.331C67.6062 157.155 67.6211 157.866 67.4756 158.464C67.3405 159.06 67.1143 159.561 66.797 159.966C66.4775 160.361 66.1067 160.669 65.6847 160.889C65.2649 161.12 64.8619 161.277 64.4759 161.359C64.0794 161.443 63.6488 161.469 63.184 161.437C62.7191 161.405 62.2668 161.278 61.8268 161.055C61.3951 160.82 60.9975 160.463 60.634 159.984C60.2809 159.503 60.0179 158.855 59.8449 158.041ZM74.0522 158.211L74.0209 158.218C73.9425 158.311 73.828 158.439 73.6772 158.602C73.5242 158.754 73.3452 158.912 73.14 159.076C72.9349 159.239 72.7003 159.393 72.4364 159.536C72.1828 159.677 71.9152 159.778 71.6335 159.838C71.2475 159.92 70.9077 159.937 70.6143 159.891C70.323 159.854 70.0695 159.739 69.8538 159.545C69.6381 159.351 69.4538 159.074 69.3009 158.714C69.148 158.354 69.0117 157.892 68.892 157.329L67.8042 152.211L69.0562 151.945L70.1041 156.875C70.1706 157.188 70.2357 157.468 70.2994 157.717C70.363 157.965 70.445 158.171 70.5453 158.335C70.6456 158.499 70.7747 158.619 70.9325 158.694C71.0985 158.757 71.312 158.761 71.5728 158.706C71.8441 158.648 72.1136 158.531 72.3813 158.354C72.6491 158.177 72.8874 157.99 73.0963 157.793C73.3425 157.566 73.5791 157.319 73.806 157.053L72.5619 151.2L73.8139 150.934L75.271 157.789C75.3612 158.162 75.4594 158.496 75.5654 158.789L74.3557 159.177L74.0522 158.211ZM75.797 151.837C75.746 151.597 75.64 151.227 75.4792 150.727L76.6041 150.324L76.9721 151.44L76.9878 151.437C77.1246 151.157 77.2628 150.909 77.4025 150.694C77.5421 150.479 77.6926 150.289 77.8538 150.124C78.0232 149.946 78.1965 149.839 78.3739 149.801C78.6117 149.739 78.9511 149.695 79.3922 149.666L79.3666 150.931C79.009 150.942 78.7635 150.967 78.6301 151.006C78.4527 151.044 78.2826 151.167 78.1199 151.376C77.9571 151.585 77.8227 151.799 77.7165 152.018C77.5775 152.288 77.4504 152.587 77.3351 152.917L78.4528 158.176L77.2008 158.442L75.797 151.837ZM10.2281 193.14C10.4433 194.152 10.8284 194.861 11.3835 195.267C11.9468 195.659 12.6145 195.774 13.3866 195.61C14.1482 195.448 14.6908 195.076 15.0143 194.495C15.3379 193.913 15.3954 193.132 15.187 192.152C14.9652 191.108 14.5704 190.38 14.0027 189.966C13.4454 189.55 12.7755 189.425 11.9929 189.592C11.2104 189.758 10.6648 190.141 10.3562 190.741C10.0557 191.329 10.013 192.128 10.2281 193.14ZM8.89453 193.407C8.72599 192.614 8.71147 191.931 8.85099 191.356C8.98829 190.77 9.2167 190.28 9.53621 189.885C9.8535 189.48 10.2179 189.168 10.6295 188.949C11.0494 188.718 11.4575 188.561 11.854 188.476C12.2296 188.397 12.6498 188.373 13.1146 188.405C13.5877 188.424 14.0453 188.55 14.4874 188.784C14.9273 189.006 15.3279 189.352 15.6892 189.82C16.0483 190.278 16.3121 190.904 16.4807 191.697C16.6559 192.521 16.6707 193.232 16.5252 193.83C16.3901 194.426 16.1639 194.927 15.8466 195.332C15.5271 195.727 15.1563 196.035 14.7343 196.255C14.3145 196.486 13.9116 196.643 13.5255 196.725C13.129 196.809 12.6984 196.835 12.2336 196.803C11.7687 196.771 11.3164 196.644 10.8764 196.421C10.4447 196.186 10.0471 195.829 9.68362 195.35C9.33055 194.869 9.06752 194.221 8.89453 193.407ZM18.1717 184.843L18.6707 187.191L20.94 186.709L21.1562 187.726L18.8869 188.208L19.7751 192.387C19.8483 192.731 19.9145 193.017 19.9737 193.244C20.0434 193.469 20.1187 193.644 20.1997 193.769C20.2807 193.893 20.3748 193.977 20.482 194.02C20.587 194.052 20.7126 194.052 20.8586 194.021C21.2529 193.927 21.6809 193.683 22.1427 193.29L22.7212 194.165C22.4257 194.468 22.1344 194.688 21.8474 194.825C21.573 194.971 21.2897 195.075 20.9976 195.137C20.309 195.283 19.7828 195.193 19.419 194.867C19.0635 194.528 18.7892 193.905 18.5963 192.997L17.6349 188.474L16.1951 188.78L15.9788 187.763L17.4187 187.457L16.9529 185.266L18.1717 184.843ZM21.1449 182.641L22.367 182.234L23.4249 187.211C23.6935 186.936 23.9625 186.688 24.2318 186.467C24.5116 186.244 24.8009 186.041 25.1 185.857C25.3968 185.663 25.6965 185.534 25.9991 185.47C26.4269 185.379 26.7927 185.356 27.0966 185.4C27.4087 185.432 27.6778 185.544 27.904 185.735C28.1301 185.927 28.3197 186.203 28.4725 186.563C28.6358 186.921 28.7774 187.382 28.8971 187.945L29.9749 193.016L28.7229 193.282L27.675 188.352C27.6085 188.039 27.5445 187.764 27.4831 187.526C27.4194 187.278 27.3281 187.079 27.2092 186.93C27.0984 186.768 26.9496 186.658 26.7627 186.6C26.5862 186.539 26.3519 186.54 26.0598 186.602C25.7885 186.659 25.5097 186.784 25.2233 186.976C24.9347 187.157 24.6662 187.356 24.4177 187.572C24.1693 187.789 23.916 188.034 23.6577 188.306L24.8886 194.097L23.6365 194.363L21.1449 182.641ZM37.385 191.245C37.1605 191.369 36.9234 191.485 36.6737 191.592C36.4343 191.698 36.1626 191.804 35.8585 191.913C35.5648 192.019 35.251 192.107 34.9171 192.178C34.3954 192.289 33.8948 192.319 33.4151 192.268C32.9354 192.218 32.4942 192.066 32.0916 191.814C31.689 191.561 31.3342 191.2 31.0273 190.731C30.7286 190.25 30.4994 189.633 30.3397 188.882C30.1956 188.204 30.1631 187.589 30.2422 187.038C30.3191 186.476 30.4827 185.989 30.733 185.576C30.9914 185.15 31.3209 184.802 31.7214 184.531C32.1324 184.259 32.5987 184.067 33.1204 183.956C33.6316 183.847 34.0961 183.852 34.5139 183.971C34.9316 184.089 35.2971 184.295 35.6102 184.588C35.9316 184.869 36.1985 185.226 36.4108 185.661C36.6314 186.083 36.7949 186.545 36.9013 187.045L36.8129 187.784L31.7579 188.858C31.8266 189.182 31.9371 189.496 32.0893 189.802C32.2415 190.108 32.4445 190.37 32.6982 190.589C32.9623 190.805 33.2738 190.963 33.6327 191.061C33.9999 191.146 34.4286 191.137 34.919 191.033C35.232 190.966 35.5156 190.89 35.7698 190.803C36.0218 190.706 36.2372 190.616 36.4162 190.535C36.6033 190.44 36.7737 190.344 36.9273 190.246L37.385 191.245ZM35.5358 187.009C35.5203 186.936 35.4703 186.777 35.3857 186.533C35.3012 186.29 35.1727 186.044 35.0003 185.797C34.8279 185.551 34.5995 185.348 34.3152 185.191C34.0286 185.023 33.6871 184.981 33.2906 185.065C32.8524 185.158 32.5124 185.328 32.2706 185.576C32.0266 185.813 31.8478 186.075 31.7341 186.361C31.6204 186.647 31.5599 186.927 31.5528 187.201C31.5456 187.475 31.5587 187.69 31.5919 187.847L35.5358 187.009ZM37.5546 184.502C37.5035 184.262 37.3976 183.892 37.2368 183.392L38.3616 182.989L38.7297 184.105L38.7453 184.102C38.8821 183.822 39.0204 183.574 39.16 183.359C39.2997 183.144 39.4501 182.954 39.6113 182.789C39.7807 182.611 39.9541 182.503 40.1315 182.466C40.3693 182.404 40.7087 182.359 41.1498 182.331L41.1242 183.596C40.7666 183.607 40.5211 183.632 40.3876 183.671C40.2103 183.709 40.0402 183.832 39.8775 184.041C39.7147 184.25 39.5803 184.464 39.4741 184.683C39.3351 184.952 39.2079 185.252 39.0927 185.582L40.2104 190.84L38.9584 191.107L37.5546 184.502ZM49.4941 181.981C49.0271 181.938 48.6169 181.933 48.2638 181.964C47.9188 181.983 47.6055 182.022 47.3238 182.082C46.9586 182.16 46.6696 182.314 46.4569 182.544C46.2547 182.773 46.1835 183.028 46.2434 183.309C46.307 183.558 46.462 183.748 46.7084 183.881C46.9548 184.014 47.2291 184.125 47.5314 184.213C47.842 184.289 48.1819 184.375 48.5513 184.471C48.9311 184.565 49.2892 184.685 49.6257 184.832C49.9726 184.976 50.2711 185.174 50.521 185.426C50.7709 185.679 50.9443 186.007 51.0412 186.412C51.1239 186.852 51.1024 187.238 50.9767 187.57C50.8592 187.89 50.6732 188.169 50.4188 188.409C50.1726 188.636 49.8892 188.816 49.5686 188.949C49.2503 189.093 48.945 189.196 48.6529 189.259C48.2773 189.338 47.8816 189.401 47.4658 189.445C47.0604 189.488 46.6138 189.49 46.1259 189.452L46.1212 188.275C46.6173 188.301 47.065 188.304 47.4644 188.284C47.8615 188.254 48.1853 188.213 48.4357 188.16C48.6235 188.12 48.8016 188.06 48.9701 187.981C49.1491 187.899 49.3038 187.806 49.4343 187.702C49.5627 187.588 49.6553 187.459 49.7121 187.316C49.7794 187.171 49.7964 187.02 49.7632 186.863C49.6906 186.573 49.5394 186.349 49.3094 186.191C49.0773 186.022 48.7933 185.892 48.4575 185.8C48.1298 185.695 47.7772 185.601 47.3997 185.517C47.0303 185.421 46.6722 185.301 46.3252 185.157C45.9865 185 45.687 184.796 45.4267 184.546C45.1641 184.286 44.9863 183.937 44.8931 183.498C44.8266 183.185 44.8461 182.892 44.9516 182.619C45.0653 182.333 45.2307 182.085 45.4478 181.876C45.6732 181.653 45.9283 181.468 46.2131 181.32C46.5062 181.16 46.7988 181.049 47.0909 180.987C47.3935 180.922 47.7381 180.876 48.1248 180.849C48.5093 180.81 48.96 180.802 49.477 180.823L49.4941 181.981ZM51.3149 182.15C51.2351 181.774 51.0904 181.221 50.8807 180.492L52.0056 180.089L52.3261 180.904C52.497 180.683 52.6777 180.481 52.8679 180.298C53.0664 180.103 53.2861 179.931 53.527 179.782C53.7761 179.62 54.0519 179.507 54.3545 179.443C54.7823 179.352 55.1995 179.339 55.6062 179.406C56.0232 179.47 56.407 179.633 56.7575 179.897C57.1184 180.158 57.4377 180.532 57.7155 181.018C57.9911 181.494 58.2088 182.107 58.3685 182.859C58.5304 183.62 58.5531 184.292 58.4367 184.873C58.3284 185.441 58.1272 185.931 57.833 186.342C57.547 186.741 57.19 187.062 56.762 187.306C56.3444 187.547 55.9008 187.718 55.4313 187.818C54.9283 187.914 54.4037 187.96 53.8577 187.956L54.5795 191.352L53.3608 191.775L51.3149 182.15ZM55.1985 186.722C55.6367 186.629 55.9956 186.471 56.2754 186.248C56.5551 186.025 56.7653 185.757 56.9059 185.443C57.0547 185.117 57.1383 184.767 57.1568 184.392C57.1731 184.007 57.138 183.611 57.0515 183.204C56.9739 182.839 56.8597 182.481 56.7091 182.132C56.5689 181.78 56.3906 181.48 56.1742 181.231C55.966 180.97 55.7179 180.778 55.4298 180.653C55.1394 180.519 54.8117 180.49 54.4465 180.568C54.1752 180.626 53.9307 180.732 53.7129 180.888C53.4929 181.032 53.2889 181.201 53.1008 181.394C52.921 181.574 52.7508 181.774 52.5902 181.993L53.6115 186.798C53.7351 186.815 53.8692 186.83 54.0137 186.843C54.1664 186.843 54.34 186.839 54.5345 186.831C54.7372 186.809 54.9585 186.773 55.1985 186.722ZM66.2434 185.111C66.0189 185.235 65.7818 185.35 65.5321 185.458C65.2928 185.563 65.021 185.67 64.7169 185.779C64.4232 185.885 64.1094 185.973 63.7755 186.044C63.2539 186.155 62.7532 186.185 62.2735 186.134C61.7938 186.084 61.3526 185.932 60.95 185.68C60.5474 185.427 60.1926 185.066 59.8857 184.597C59.587 184.115 59.3578 183.499 59.1982 182.748C59.054 182.07 59.0215 181.455 59.1006 180.904C59.1776 180.342 59.3411 179.855 59.5914 179.442C59.8499 179.016 60.1794 178.668 60.5799 178.397C60.9908 178.125 61.4571 177.933 61.9788 177.822C62.49 177.713 62.9545 177.718 63.3723 177.837C63.79 177.955 64.1555 178.161 64.4686 178.454C64.79 178.735 65.0569 179.092 65.2692 179.527C65.4898 179.949 65.6533 180.411 65.7597 180.911L65.6714 181.65L60.6163 182.724C60.685 183.048 60.7955 183.362 60.9477 183.668C61.1 183.974 61.3029 184.236 61.5566 184.455C61.8207 184.671 62.1322 184.829 62.4911 184.927C62.8583 185.012 63.287 185.003 63.7774 184.899C64.0904 184.832 64.374 184.756 64.6282 184.669C64.8802 184.572 65.0956 184.482 65.2746 184.401C65.4617 184.306 65.6321 184.21 65.7857 184.112L66.2434 185.111ZM64.3942 180.874C64.3787 180.801 64.3287 180.643 64.2442 180.399C64.1596 180.156 64.0312 179.91 63.8587 179.663C63.6863 179.416 63.4579 179.214 63.1736 179.057C62.887 178.888 62.5455 178.847 62.1491 178.931C61.7108 179.024 61.3708 179.194 61.1291 179.442C60.8851 179.679 60.7062 179.941 60.5925 180.227C60.4788 180.513 60.4183 180.793 60.4112 181.067C60.404 181.341 60.4171 181.556 60.4503 181.713L64.3942 180.874ZM71.2536 177.208C71.0674 177.204 70.8133 177.215 70.4914 177.239C70.1673 177.254 69.8436 177.295 69.5201 177.364C69.0506 177.464 68.6845 177.64 68.4219 177.892C68.1697 178.142 67.9922 178.436 67.8896 178.774C67.7848 179.101 67.7399 179.455 67.7549 179.833C67.7677 180.201 67.8107 180.557 67.8839 180.902C67.997 181.434 68.1624 181.878 68.3801 182.236C68.5955 182.582 68.8383 182.852 69.1084 183.046C69.389 183.237 69.6875 183.359 70.0041 183.412C70.3184 183.454 70.6373 183.441 70.9607 183.372C71.1798 183.325 71.3863 183.27 71.5801 183.207C71.7821 183.132 71.9632 183.061 72.1235 182.994C72.292 182.914 72.449 182.832 72.5944 182.746L73.0677 183.742C72.8619 183.851 72.6695 183.946 72.4906 184.028C72.3116 184.11 72.0951 184.194 71.8409 184.281C71.5971 184.365 71.3292 184.439 71.0371 184.501C70.4632 184.623 69.9364 184.658 69.4567 184.608C68.9771 184.557 68.5463 184.403 68.1646 184.146C67.7933 183.887 67.4687 183.514 67.1909 183.028C66.9235 182.54 66.7099 181.92 66.5503 181.169C66.395 180.438 66.3611 179.791 66.4484 179.227C66.544 178.651 66.7243 178.166 66.9895 177.771C67.2524 177.366 67.5811 177.04 67.9756 176.793C68.3805 176.543 68.8178 176.368 69.2873 176.269C69.5377 176.215 69.781 176.18 70.0172 176.162C70.2616 176.132 70.4758 176.114 70.6598 176.108C70.8774 176.105 71.0845 176.105 71.2811 176.106L71.2536 177.208ZM72.3792 175.759L73.6013 175.352L75.3078 183.38L74.0558 183.646L72.3792 175.759ZM71.7 173.564C71.649 173.324 71.6851 173.109 71.8084 172.919C71.9398 172.717 72.1255 172.59 72.3655 172.539C72.6159 172.486 72.8423 172.525 73.0447 172.656C73.2554 172.775 73.3862 172.955 73.4372 173.195C73.4882 173.434 73.4428 173.657 73.3009 173.861C73.1672 174.053 72.9752 174.176 72.7248 174.229C72.4848 174.28 72.2647 174.245 72.0645 174.124C71.8725 173.991 71.751 173.804 71.7 173.564ZM80.5923 178.478C80.3858 178.533 80.1898 178.586 80.0042 178.636C79.8186 178.686 79.6341 178.742 79.4508 178.803C79.2756 178.851 79.1172 178.901 78.9756 178.953C78.2443 179.206 77.7477 179.486 77.4857 179.793C77.2215 180.089 77.136 180.456 77.2291 180.894C77.3067 181.26 77.475 181.513 77.7341 181.654C78.0013 181.783 78.3175 181.808 78.6827 181.73C79.1835 181.624 79.6092 181.446 79.9597 181.197C80.3185 180.936 80.6558 180.624 80.9715 180.263L80.5923 178.478ZM81.1887 181.361C80.7582 181.747 80.3479 182.074 79.9579 182.343C79.576 182.598 79.1399 182.778 78.6495 182.883C77.9504 183.031 77.3568 182.983 76.8685 182.738C76.3884 182.48 76.0652 181.96 75.8988 181.177C75.8123 180.77 75.8413 180.393 75.9856 180.046C76.13 179.699 76.348 179.391 76.6398 179.122C76.9397 178.84 77.2914 178.597 77.6948 178.391C78.0981 178.185 78.5208 178.019 78.9628 177.892C79.1462 177.832 79.3881 177.764 79.6884 177.689C79.9865 177.604 80.218 177.538 80.3827 177.492C80.3051 177.127 80.2259 176.806 80.1451 176.529C80.0622 176.241 79.9475 176.009 79.801 175.833C79.6523 175.647 79.4625 175.523 79.2317 175.463C79.0113 175.401 78.7133 175.41 78.3377 175.49C78.0351 175.554 77.7474 175.637 77.4745 175.739C77.1995 175.83 76.9568 175.92 76.7466 176.008C76.4969 176.116 76.2691 176.224 76.0633 176.333L75.5833 175.306C75.8309 175.188 76.1004 175.071 76.3919 174.955C76.6416 174.847 76.9353 174.741 77.273 174.637C77.6084 174.522 77.9744 174.422 78.3708 174.338C78.903 174.225 79.3474 174.212 79.7041 174.3C80.0712 174.385 80.3723 174.545 80.6073 174.778C80.8506 174.999 81.0401 175.275 81.1759 175.606C81.3199 175.925 81.4318 176.272 81.5116 176.647L82.31 180.403C82.3411 180.549 82.3743 180.706 82.4098 180.873C82.4535 181.027 82.4972 181.181 82.5409 181.336C82.5951 181.488 82.6503 181.645 82.7066 181.808L81.5282 182.189L81.1887 181.361ZM81.7504 169.759L82.9724 169.352L85.494 181.215L84.242 181.481L81.7504 169.759ZM86.8236 170.251L87.3226 172.599L89.5919 172.116L89.8081 173.133L87.5388 173.616L88.427 177.794C88.5002 178.139 88.5664 178.425 88.6257 178.652C88.6953 178.877 88.7706 179.052 88.8516 179.176C88.9326 179.301 89.0267 179.385 89.134 179.427C89.2389 179.459 89.3645 179.46 89.5105 179.429C89.9048 179.334 90.3328 179.091 90.7946 178.698L91.3732 179.573C91.0776 179.876 90.7864 180.096 90.4993 180.233C90.2249 180.378 89.9416 180.482 89.6495 180.544C88.9609 180.691 88.4347 180.601 88.0709 180.275C87.7154 179.936 87.4411 179.313 87.2482 178.405L86.2868 173.882L84.847 174.188L84.6308 173.171L86.0706 172.865L85.6049 170.674L86.8236 170.251ZM90.6119 171.883L91.8339 171.476L93.5405 179.505L92.2885 179.771L90.6119 171.883ZM89.9327 169.688C89.8817 169.448 89.9178 169.233 90.041 169.044C90.1725 168.841 90.3582 168.715 90.5982 168.664C90.8486 168.61 91.075 168.649 91.2774 168.781C91.4881 168.9 91.6189 169.079 91.6699 169.319C91.7209 169.559 91.6755 169.781 91.5336 169.986C91.3999 170.178 91.2079 170.301 90.9575 170.354C90.7175 170.405 90.4974 170.37 90.2972 170.249C90.1052 170.115 89.9837 169.928 89.9327 169.688ZM100.993 177.724C100.769 177.848 100.532 177.964 100.282 178.072C100.043 178.177 99.771 178.284 99.4668 178.392C99.1731 178.498 98.8593 178.587 98.5255 178.658C98.0038 178.769 97.5031 178.799 97.0234 178.748C96.5437 178.697 96.1026 178.546 95.6999 178.293C95.2973 178.041 94.9425 177.68 94.6356 177.211C94.3369 176.729 94.1078 176.113 93.9481 175.361C93.8039 174.683 93.7714 174.069 93.8506 173.517C93.9275 172.956 94.0911 172.468 94.3413 172.055C94.5998 171.63 94.9293 171.282 95.3298 171.011C95.7407 170.738 96.207 170.547 96.7287 170.436C97.24 170.327 97.7045 170.332 98.1222 170.45C98.54 170.569 98.9054 170.775 99.2186 171.068C99.5399 171.348 99.8068 171.706 100.019 172.141C100.24 172.563 100.403 173.024 100.51 173.525L100.421 174.264L95.3662 175.338C95.435 175.662 95.5455 175.976 95.6977 176.282C95.8499 176.587 96.0528 176.85 96.3065 177.068C96.5706 177.285 96.8822 177.442 97.2411 177.54C97.6082 177.626 98.037 177.617 98.5274 177.512C98.8404 177.446 99.124 177.369 99.3781 177.282C99.6301 177.185 99.8456 177.096 100.024 177.014C100.212 176.92 100.382 176.824 100.536 176.726L100.993 177.724ZM99.1442 173.488C99.1286 173.415 99.0786 173.257 98.9941 173.013C98.9096 172.769 98.7811 172.524 98.6086 172.277C98.4362 172.03 98.2078 171.828 97.9235 171.67C97.637 171.502 97.2955 171.46 96.899 171.544C96.4608 171.638 96.1208 171.808 95.879 172.056C95.635 172.293 95.4561 172.555 95.3424 172.84C95.2287 173.126 95.1683 173.406 95.1611 173.68C95.1539 173.955 95.167 174.17 95.2003 174.326L99.1442 173.488ZM105.407 170.096C104.94 170.053 104.53 170.048 104.177 170.079C103.832 170.098 103.519 170.137 103.237 170.197C102.872 170.275 102.583 170.429 102.37 170.66C102.168 170.888 102.097 171.143 102.157 171.425C102.22 171.673 102.375 171.864 102.622 171.997C102.868 172.13 103.142 172.24 103.445 172.329C103.755 172.404 104.095 172.49 104.465 172.586C104.844 172.68 105.203 172.8 105.539 172.947C105.886 173.091 106.184 173.289 106.434 173.542C106.684 173.794 106.858 174.122 106.955 174.527C107.037 174.967 107.016 175.354 106.89 175.686C106.773 176.005 106.587 176.285 106.332 176.524C106.086 176.751 105.803 176.931 105.482 177.065C105.164 177.209 104.858 177.312 104.566 177.374C104.191 177.454 103.795 177.516 103.379 177.561C102.974 177.603 102.527 177.605 102.039 177.567L102.035 176.391C102.531 176.416 102.978 176.419 103.378 176.4C103.775 176.37 104.099 176.328 104.349 176.275C104.537 176.235 104.715 176.175 104.883 176.096C105.062 176.014 105.217 175.921 105.348 175.817C105.476 175.703 105.569 175.574 105.625 175.431C105.693 175.286 105.71 175.135 105.677 174.979C105.604 174.689 105.453 174.465 105.223 174.306C104.991 174.137 104.707 174.007 104.371 173.915C104.043 173.81 103.691 173.716 103.313 173.633C102.944 173.537 102.586 173.416 102.239 173.272C101.9 173.115 101.6 172.912 101.34 172.662C101.077 172.401 100.9 172.052 100.806 171.614C100.74 171.301 100.759 171.007 100.865 170.734C100.979 170.448 101.144 170.201 101.361 169.991C101.587 169.768 101.842 169.583 102.126 169.436C102.42 169.275 102.712 169.164 103.004 169.102C103.307 169.037 103.651 168.991 104.038 168.964C104.423 168.926 104.873 168.917 105.39 168.938L105.407 170.096Z" fill="#F4F4F4"/>
<path opacity="0.4" d="M214.034 45V10.0909H237.557V16.1761H221.415V24.4943H236.347V30.5795H221.415V38.9148H237.625V45H214.034ZM248.886 18.8182L253.693 27.9716L258.619 18.8182H266.068L258.483 31.9091L266.272 45H258.858L253.693 35.9489L248.613 45H241.113L248.886 31.9091L241.386 18.8182H248.886ZM280.802 45.5114C278.12 45.5114 275.813 44.9432 273.882 43.8068C271.961 42.6591 270.484 41.0682 269.45 39.0341C268.427 37 267.916 34.6591 267.916 32.0114C267.916 29.3295 268.433 26.9773 269.467 24.9545C270.512 22.9205 271.995 21.3352 273.916 20.1989C275.836 19.0511 278.12 18.4773 280.768 18.4773C283.052 18.4773 285.052 18.892 286.768 19.7216C288.484 20.5511 289.842 21.7159 290.842 23.2159C291.842 24.7159 292.393 26.4773 292.495 28.5H285.643C285.45 27.1932 284.938 26.142 284.109 25.3466C283.291 24.5398 282.217 24.1364 280.887 24.1364C279.762 24.1364 278.779 24.4432 277.938 25.0568C277.109 25.6591 276.461 26.5398 275.995 27.6989C275.529 28.858 275.296 30.2614 275.296 31.9091C275.296 33.5795 275.524 35 275.978 36.1705C276.444 37.3409 277.098 38.233 277.938 38.8466C278.779 39.4602 279.762 39.767 280.887 39.767C281.717 39.767 282.461 39.5966 283.12 39.2557C283.791 38.9148 284.342 38.4205 284.774 37.7727C285.217 37.1136 285.507 36.3239 285.643 35.4034H292.495C292.382 37.4034 291.836 39.1648 290.859 40.6875C289.893 42.1989 288.558 43.3807 286.853 44.233C285.149 45.0852 283.132 45.5114 280.802 45.5114ZM308.606 45.5114C305.913 45.5114 303.594 44.9659 301.651 43.875C299.719 42.7727 298.231 41.2159 297.185 39.2045C296.14 37.1818 295.617 34.7898 295.617 32.0284C295.617 29.3352 296.14 26.9716 297.185 24.9375C298.231 22.9034 299.702 21.3182 301.6 20.1818C303.509 19.0455 305.748 18.4773 308.316 18.4773C310.043 18.4773 311.651 18.7557 313.14 19.3125C314.64 19.858 315.947 20.6818 317.06 21.7841C318.185 22.8864 319.06 24.2727 319.685 25.9432C320.31 27.6023 320.623 29.5455 320.623 31.7727V33.767H298.515V29.267H313.788C313.788 28.2216 313.56 27.2955 313.106 26.4886C312.651 25.6818 312.021 25.0511 311.214 24.5966C310.418 24.1307 309.492 23.8977 308.435 23.8977C307.333 23.8977 306.356 24.1534 305.504 24.6648C304.663 25.1648 304.004 25.8409 303.526 26.6932C303.049 27.5341 302.805 28.4716 302.793 29.5057V33.7841C302.793 35.0795 303.032 36.1989 303.509 37.142C303.998 38.0852 304.685 38.8125 305.572 39.3239C306.458 39.8352 307.509 40.0909 308.725 40.0909C309.532 40.0909 310.271 39.9773 310.941 39.75C311.612 39.5227 312.185 39.1818 312.663 38.7273C313.14 38.2727 313.504 37.7159 313.754 37.0568L320.469 37.5C320.129 39.1136 319.43 40.5227 318.373 41.7273C317.327 42.9205 315.975 43.8523 314.316 44.5227C312.668 45.1818 310.765 45.5114 308.606 45.5114ZM332.152 10.0909V45H324.891V10.0909H332.152ZM344.76 10.0909V45H337.499V10.0909H344.76ZM362.038 45.5114C359.345 45.5114 357.027 44.9659 355.084 43.875C353.152 42.7727 351.663 41.2159 350.618 39.2045C349.572 37.1818 349.05 34.7898 349.05 32.0284C349.05 29.3352 349.572 26.9716 350.618 24.9375C351.663 22.9034 353.135 21.3182 355.033 20.1818C356.942 19.0455 359.18 18.4773 361.749 18.4773C363.476 18.4773 365.084 18.7557 366.572 19.3125C368.072 19.858 369.379 20.6818 370.493 21.7841C371.618 22.8864 372.493 24.2727 373.118 25.9432C373.743 27.6023 374.055 29.5455 374.055 31.7727V33.767H351.947V29.267H367.22C367.22 28.2216 366.993 27.2955 366.538 26.4886C366.084 25.6818 365.453 25.0511 364.646 24.5966C363.851 24.1307 362.925 23.8977 361.868 23.8977C360.766 23.8977 359.788 24.1534 358.936 24.6648C358.095 25.1648 357.436 25.8409 356.959 26.6932C356.482 27.5341 356.237 28.4716 356.226 29.5057V33.7841C356.226 35.0795 356.465 36.1989 356.942 37.142C357.43 38.0852 358.118 38.8125 359.004 39.3239C359.891 39.8352 360.942 40.0909 362.158 40.0909C362.965 40.0909 363.703 39.9773 364.374 39.75C365.044 39.5227 365.618 39.1818 366.095 38.7273C366.572 38.2727 366.936 37.7159 367.186 37.0568L373.902 37.5C373.561 39.1136 372.862 40.5227 371.805 41.7273C370.76 42.9205 369.408 43.8523 367.749 44.5227C366.101 45.1818 364.197 45.5114 362.038 45.5114ZM385.585 29.8636V45H378.324V18.8182H385.244V23.4375H385.551C386.13 21.9148 387.102 20.7102 388.466 19.8239C389.829 18.9261 391.483 18.4773 393.426 18.4773C395.244 18.4773 396.829 18.875 398.182 19.6705C399.534 20.4659 400.585 21.6023 401.335 23.0795C402.085 24.5455 402.46 26.2955 402.46 28.3295V45H395.199V29.625C395.21 28.0227 394.801 26.7727 393.971 25.875C393.142 24.9659 392 24.5114 390.545 24.5114C389.568 24.5114 388.704 24.7216 387.954 25.142C387.216 25.5625 386.636 26.1761 386.216 26.983C385.807 27.7784 385.596 28.7386 385.585 29.8636ZM419.542 45.5114C416.86 45.5114 414.554 44.9432 412.622 43.8068C410.701 42.6591 409.224 41.0682 408.19 39.0341C407.167 37 406.656 34.6591 406.656 32.0114C406.656 29.3295 407.173 26.9773 408.207 24.9545C409.252 22.9205 410.735 21.3352 412.656 20.1989C414.576 19.0511 416.86 18.4773 419.508 18.4773C421.792 18.4773 423.792 18.892 425.508 19.7216C427.224 20.5511 428.582 21.7159 429.582 23.2159C430.582 24.7159 431.133 26.4773 431.235 28.5H424.383C424.19 27.1932 423.679 26.142 422.849 25.3466C422.031 24.5398 420.957 24.1364 419.627 24.1364C418.502 24.1364 417.519 24.4432 416.679 25.0568C415.849 25.6591 415.201 26.5398 414.735 27.6989C414.269 28.858 414.037 30.2614 414.037 31.9091C414.037 33.5795 414.264 35 414.718 36.1705C415.184 37.3409 415.838 38.233 416.679 38.8466C417.519 39.4602 418.502 39.767 419.627 39.767C420.457 39.767 421.201 39.5966 421.86 39.2557C422.531 38.9148 423.082 38.4205 423.514 37.7727C423.957 37.1136 424.247 36.3239 424.383 35.4034H431.235C431.122 37.4034 430.576 39.1648 429.599 40.6875C428.633 42.1989 427.298 43.3807 425.593 44.233C423.889 45.0852 421.872 45.5114 419.542 45.5114ZM447.346 45.5114C444.653 45.5114 442.335 44.9659 440.391 43.875C438.46 42.7727 436.971 41.2159 435.925 39.2045C434.88 37.1818 434.357 34.7898 434.357 32.0284C434.357 29.3352 434.88 26.9716 435.925 24.9375C436.971 22.9034 438.443 21.3182 440.34 20.1818C442.249 19.0455 444.488 18.4773 447.056 18.4773C448.783 18.4773 450.391 18.7557 451.88 19.3125C453.38 19.858 454.687 20.6818 455.8 21.7841C456.925 22.8864 457.8 24.2727 458.425 25.9432C459.05 27.6023 459.363 29.5455 459.363 31.7727V33.767H437.255V29.267H452.528C452.528 28.2216 452.3 27.2955 451.846 26.4886C451.391 25.6818 450.761 25.0511 449.954 24.5966C449.158 24.1307 448.232 23.8977 447.175 23.8977C446.073 23.8977 445.096 24.1534 444.244 24.6648C443.403 25.1648 442.744 25.8409 442.266 26.6932C441.789 27.5341 441.545 28.4716 441.533 29.5057V33.7841C441.533 35.0795 441.772 36.1989 442.249 37.142C442.738 38.0852 443.425 38.8125 444.312 39.3239C445.198 39.8352 446.249 40.0909 447.465 40.0909C448.272 40.0909 449.011 39.9773 449.681 39.75C450.352 39.5227 450.925 39.1818 451.403 38.7273C451.88 38.2727 452.244 37.7159 452.494 37.0568L459.21 37.5C458.869 39.1136 458.17 40.5227 457.113 41.7273C456.068 42.9205 454.715 43.8523 453.056 44.5227C451.408 45.1818 449.505 45.5114 447.346 45.5114ZM214.034 66.0909H223.136L232.75 89.5455H233.159L242.773 66.0909H251.875V101H244.716V78.2784H244.426L235.392 100.83H230.517L221.483 78.1932H221.193V101H214.034V66.0909ZM257.349 101V74.8182H264.611V101H257.349ZM260.997 71.4432C259.917 71.4432 258.991 71.0852 258.219 70.3693C257.457 69.642 257.076 68.7727 257.076 67.7614C257.076 66.7614 257.457 65.9034 258.219 65.1875C258.991 64.4602 259.917 64.0966 260.997 64.0966C262.076 64.0966 262.997 64.4602 263.758 65.1875C264.531 65.9034 264.917 66.7614 264.917 67.7614C264.917 68.7727 264.531 69.642 263.758 70.3693C262.997 71.0852 262.076 71.4432 260.997 71.4432ZM277.218 66.0909V101H269.957V66.0909H277.218ZM294.496 101.511C291.803 101.511 289.485 100.966 287.542 99.875C285.61 98.7727 284.121 97.2159 283.076 95.2045C282.031 93.1818 281.508 90.7898 281.508 88.0284C281.508 85.3352 282.031 82.9716 283.076 80.9375C284.121 78.9034 285.593 77.3182 287.491 76.1818C289.4 75.0455 291.639 74.4773 294.207 74.4773C295.934 74.4773 297.542 74.7557 299.031 75.3125C300.531 75.858 301.837 76.6818 302.951 77.7841C304.076 78.8864 304.951 80.2727 305.576 81.9432C306.201 83.6023 306.514 85.5455 306.514 87.7727V89.767H284.406V85.267H299.678C299.678 84.2216 299.451 83.2955 298.996 82.4886C298.542 81.6818 297.911 81.0511 297.104 80.5966C296.309 80.1307 295.383 79.8977 294.326 79.8977C293.224 79.8977 292.246 80.1534 291.394 80.6648C290.553 81.1648 289.894 81.8409 289.417 82.6932C288.94 83.5341 288.695 84.4716 288.684 85.5057V89.7841C288.684 91.0795 288.923 92.1989 289.4 93.142C289.889 94.0852 290.576 94.8125 291.462 95.3239C292.349 95.8352 293.4 96.0909 294.616 96.0909C295.423 96.0909 296.161 95.9773 296.832 95.75C297.502 95.5227 298.076 95.1818 298.553 94.7273C299.031 94.2727 299.394 93.7159 299.644 93.0568L306.36 93.5C306.019 95.1136 305.32 96.5227 304.264 97.7273C303.218 98.9205 301.866 99.8523 300.207 100.523C298.559 101.182 296.656 101.511 294.496 101.511ZM332.566 82.2841L325.918 82.6932C325.804 82.125 325.56 81.6136 325.185 81.1591C324.81 80.6932 324.316 80.3239 323.702 80.0511C323.1 79.767 322.378 79.625 321.537 79.625C320.412 79.625 319.464 79.8636 318.691 80.3409C317.918 80.8068 317.532 81.4318 317.532 82.2159C317.532 82.8409 317.782 83.3693 318.282 83.8011C318.782 84.233 319.64 84.5795 320.856 84.8409L325.594 85.7955C328.14 86.3182 330.037 87.1591 331.287 88.3182C332.537 89.4773 333.162 91 333.162 92.8864C333.162 94.6023 332.657 96.108 331.645 97.4034C330.645 98.6989 329.27 99.7102 327.52 100.438C325.782 101.153 323.776 101.511 321.503 101.511C318.037 101.511 315.276 100.79 313.219 99.3466C311.174 97.892 309.975 95.9148 309.623 93.4148L316.765 93.0398C316.981 94.0966 317.503 94.9034 318.333 95.4602C319.162 96.0057 320.225 96.2784 321.52 96.2784C322.793 96.2784 323.816 96.0341 324.589 95.5455C325.373 95.0455 325.77 94.4034 325.782 93.6193C325.77 92.9602 325.492 92.4205 324.947 92C324.401 91.5682 323.56 91.2386 322.424 91.0114L317.89 90.108C315.333 89.5966 313.429 88.7102 312.179 87.4489C310.941 86.1875 310.322 84.5795 310.322 82.625C310.322 80.9432 310.776 79.4943 311.685 78.2784C312.606 77.0625 313.895 76.125 315.554 75.4659C317.225 74.8068 319.179 74.4773 321.418 74.4773C324.725 74.4773 327.327 75.1761 329.225 76.5739C331.134 77.9716 332.248 79.875 332.566 82.2841ZM351.191 74.8182V80.2727H335.424V74.8182H351.191ZM339.003 68.5455H346.264V92.9545C346.264 93.625 346.367 94.1477 346.571 94.5227C346.776 94.8864 347.06 95.142 347.424 95.2898C347.799 95.4375 348.23 95.5114 348.719 95.5114C349.06 95.5114 349.401 95.483 349.742 95.4261C350.083 95.358 350.344 95.3068 350.526 95.2727L351.668 100.676C351.304 100.79 350.793 100.92 350.134 101.068C349.475 101.227 348.674 101.324 347.73 101.358C345.98 101.426 344.446 101.193 343.128 100.659C341.821 100.125 340.804 99.2955 340.077 98.1705C339.35 97.0455 338.992 95.625 339.003 93.9091V68.5455ZM366.999 101.511C364.351 101.511 362.061 100.949 360.129 99.8239C358.209 98.6875 356.726 97.108 355.68 95.0852C354.635 93.0511 354.112 90.6932 354.112 88.0114C354.112 85.3068 354.635 82.9432 355.68 80.9205C356.726 78.8864 358.209 77.3068 360.129 76.1818C362.061 75.0455 364.351 74.4773 366.999 74.4773C369.646 74.4773 371.93 75.0455 373.851 76.1818C375.783 77.3068 377.271 78.8864 378.317 80.9205C379.362 82.9432 379.885 85.3068 379.885 88.0114C379.885 90.6932 379.362 93.0511 378.317 95.0852C377.271 97.108 375.783 98.6875 373.851 99.8239C371.93 100.949 369.646 101.511 366.999 101.511ZM367.033 95.8864C368.237 95.8864 369.243 95.5455 370.05 94.8636C370.857 94.1705 371.465 93.2273 371.874 92.0341C372.294 90.8409 372.504 89.483 372.504 87.9602C372.504 86.4375 372.294 85.0795 371.874 83.8864C371.465 82.6932 370.857 81.75 370.05 81.0568C369.243 80.3636 368.237 80.017 367.033 80.017C365.817 80.017 364.794 80.3636 363.965 81.0568C363.146 81.75 362.527 82.6932 362.107 83.8864C361.697 85.0795 361.493 86.4375 361.493 87.9602C361.493 89.483 361.697 90.8409 362.107 92.0341C362.527 93.2273 363.146 94.1705 363.965 94.8636C364.794 95.5455 365.817 95.8864 367.033 95.8864ZM391.398 85.8636V101H384.136V74.8182H391.057V79.4375H391.363C391.943 77.9148 392.915 76.7102 394.278 75.8239C395.642 74.9261 397.295 74.4773 399.238 74.4773C401.057 74.4773 402.642 74.875 403.994 75.6705C405.346 76.4659 406.398 77.6023 407.148 79.0795C407.898 80.5455 408.273 82.2955 408.273 84.3295V101H401.011V85.625C401.023 84.0227 400.613 82.7727 399.784 81.875C398.954 80.9659 397.812 80.5114 396.358 80.5114C395.38 80.5114 394.517 80.7216 393.767 81.142C393.028 81.5625 392.449 82.1761 392.028 82.983C391.619 83.7784 391.409 84.7386 391.398 85.8636ZM425.457 101.511C422.764 101.511 420.446 100.966 418.502 99.875C416.571 98.7727 415.082 97.2159 414.037 95.2045C412.991 93.1818 412.468 90.7898 412.468 88.0284C412.468 85.3352 412.991 82.9716 414.037 80.9375C415.082 78.9034 416.554 77.3182 418.451 76.1818C420.36 75.0455 422.599 74.4773 425.167 74.4773C426.894 74.4773 428.502 74.7557 429.991 75.3125C431.491 75.858 432.798 76.6818 433.912 77.7841C435.037 78.8864 435.912 80.2727 436.537 81.9432C437.162 83.6023 437.474 85.5455 437.474 87.7727V89.767H415.366V85.267H430.639C430.639 84.2216 430.412 83.2955 429.957 82.4886C429.502 81.6818 428.872 81.0511 428.065 80.5966C427.269 80.1307 426.343 79.8977 425.287 79.8977C424.184 79.8977 423.207 80.1534 422.355 80.6648C421.514 81.1648 420.855 81.8409 420.377 82.6932C419.9 83.5341 419.656 84.4716 419.644 85.5057V89.7841C419.644 91.0795 419.883 92.1989 420.36 93.142C420.849 94.0852 421.537 94.8125 422.423 95.3239C423.309 95.8352 424.36 96.0909 425.576 96.0909C426.383 96.0909 427.122 95.9773 427.792 95.75C428.463 95.5227 429.037 95.1818 429.514 94.7273C429.991 94.2727 430.355 93.7159 430.605 93.0568L437.321 93.5C436.98 95.1136 436.281 96.5227 435.224 97.7273C434.179 98.9205 432.826 99.8523 431.167 100.523C429.519 101.182 427.616 101.511 425.457 101.511ZM214.034 157V122.091H227.807C230.455 122.091 232.71 122.597 234.574 123.608C236.438 124.608 237.858 126 238.835 127.784C239.824 129.557 240.318 131.602 240.318 133.92C240.318 136.239 239.818 138.284 238.818 140.057C237.818 141.83 236.369 143.21 234.472 144.199C232.585 145.187 230.301 145.682 227.619 145.682H218.841V139.767H226.426C227.847 139.767 229.017 139.523 229.938 139.034C230.869 138.534 231.563 137.847 232.017 136.972C232.483 136.085 232.716 135.068 232.716 133.92C232.716 132.761 232.483 131.75 232.017 130.886C231.563 130.011 230.869 129.335 229.938 128.858C229.006 128.369 227.824 128.125 226.392 128.125H221.415V157H214.034ZM244.505 157V130.818H251.545V135.386H251.818C252.295 133.761 253.096 132.534 254.221 131.705C255.346 130.864 256.642 130.443 258.108 130.443C258.471 130.443 258.863 130.466 259.284 130.511C259.704 130.557 260.074 130.619 260.392 130.699V137.142C260.051 137.04 259.579 136.949 258.977 136.869C258.375 136.79 257.824 136.75 257.324 136.75C256.255 136.75 255.301 136.983 254.46 137.449C253.63 137.903 252.971 138.54 252.483 139.358C252.005 140.176 251.767 141.119 251.767 142.188V157H244.505ZM274.286 157.511C271.639 157.511 269.349 156.949 267.417 155.824C265.497 154.687 264.014 153.108 262.968 151.085C261.923 149.051 261.4 146.693 261.4 144.011C261.4 141.307 261.923 138.943 262.968 136.92C264.014 134.886 265.497 133.307 267.417 132.182C269.349 131.045 271.639 130.477 274.286 130.477C276.934 130.477 279.218 131.045 281.139 132.182C283.071 133.307 284.559 134.886 285.605 136.92C286.65 138.943 287.173 141.307 287.173 144.011C287.173 146.693 286.65 149.051 285.605 151.085C284.559 153.108 283.071 154.687 281.139 155.824C279.218 156.949 276.934 157.511 274.286 157.511ZM274.321 151.886C275.525 151.886 276.531 151.545 277.338 150.864C278.144 150.17 278.752 149.227 279.161 148.034C279.582 146.841 279.792 145.483 279.792 143.96C279.792 142.438 279.582 141.08 279.161 139.886C278.752 138.693 278.144 137.75 277.338 137.057C276.531 136.364 275.525 136.017 274.321 136.017C273.105 136.017 272.082 136.364 271.252 137.057C270.434 137.75 269.815 138.693 269.394 139.886C268.985 141.08 268.781 142.438 268.781 143.96C268.781 145.483 268.985 146.841 269.394 148.034C269.815 149.227 270.434 150.17 271.252 150.864C272.082 151.545 273.105 151.886 274.321 151.886ZM303.254 157.511C300.572 157.511 298.265 156.943 296.333 155.807C294.413 154.659 292.935 153.068 291.901 151.034C290.879 149 290.367 146.659 290.367 144.011C290.367 141.33 290.884 138.977 291.918 136.955C292.964 134.92 294.447 133.335 296.367 132.199C298.288 131.051 300.572 130.477 303.219 130.477C305.504 130.477 307.504 130.892 309.219 131.722C310.935 132.551 312.293 133.716 313.293 135.216C314.293 136.716 314.844 138.477 314.947 140.5H308.094C307.901 139.193 307.39 138.142 306.56 137.347C305.742 136.54 304.668 136.136 303.339 136.136C302.214 136.136 301.231 136.443 300.39 137.057C299.56 137.659 298.913 138.54 298.447 139.699C297.981 140.858 297.748 142.261 297.748 143.909C297.748 145.58 297.975 147 298.43 148.17C298.896 149.341 299.549 150.233 300.39 150.847C301.231 151.46 302.214 151.767 303.339 151.767C304.168 151.767 304.913 151.597 305.572 151.256C306.242 150.915 306.793 150.42 307.225 149.773C307.668 149.114 307.958 148.324 308.094 147.403H314.947C314.833 149.403 314.288 151.165 313.31 152.688C312.344 154.199 311.009 155.381 309.305 156.233C307.6 157.085 305.583 157.511 303.254 157.511ZM331.057 157.511C328.364 157.511 326.046 156.966 324.103 155.875C322.171 154.773 320.682 153.216 319.637 151.205C318.591 149.182 318.069 146.79 318.069 144.028C318.069 141.335 318.591 138.972 319.637 136.938C320.682 134.903 322.154 133.318 324.052 132.182C325.961 131.045 328.199 130.477 330.768 130.477C332.495 130.477 334.103 130.756 335.591 131.312C337.091 131.858 338.398 132.682 339.512 133.784C340.637 134.886 341.512 136.273 342.137 137.943C342.762 139.602 343.074 141.545 343.074 143.773V145.767H320.966V141.267H336.239C336.239 140.222 336.012 139.295 335.557 138.489C335.103 137.682 334.472 137.051 333.665 136.597C332.87 136.131 331.944 135.898 330.887 135.898C329.785 135.898 328.807 136.153 327.955 136.665C327.114 137.165 326.455 137.841 325.978 138.693C325.501 139.534 325.256 140.472 325.245 141.506V145.784C325.245 147.08 325.483 148.199 325.961 149.142C326.449 150.085 327.137 150.812 328.023 151.324C328.91 151.835 329.961 152.091 331.177 152.091C331.983 152.091 332.722 151.977 333.393 151.75C334.063 151.523 334.637 151.182 335.114 150.727C335.591 150.273 335.955 149.716 336.205 149.057L342.921 149.5C342.58 151.114 341.881 152.523 340.824 153.727C339.779 154.92 338.427 155.852 336.768 156.523C335.12 157.182 333.216 157.511 331.057 157.511ZM369.127 138.284L362.479 138.693C362.365 138.125 362.121 137.614 361.746 137.159C361.371 136.693 360.877 136.324 360.263 136.051C359.661 135.767 358.939 135.625 358.098 135.625C356.973 135.625 356.024 135.864 355.252 136.341C354.479 136.807 354.093 137.432 354.093 138.216C354.093 138.841 354.343 139.369 354.843 139.801C355.343 140.233 356.201 140.58 357.416 140.841L362.155 141.795C364.701 142.318 366.598 143.159 367.848 144.318C369.098 145.477 369.723 147 369.723 148.886C369.723 150.602 369.218 152.108 368.206 153.403C367.206 154.699 365.831 155.71 364.081 156.438C362.343 157.153 360.337 157.511 358.064 157.511C354.598 157.511 351.837 156.79 349.78 155.347C347.735 153.892 346.536 151.915 346.184 149.415L353.326 149.04C353.541 150.097 354.064 150.903 354.894 151.46C355.723 152.006 356.786 152.278 358.081 152.278C359.354 152.278 360.377 152.034 361.149 151.545C361.934 151.045 362.331 150.403 362.343 149.619C362.331 148.96 362.053 148.42 361.507 148C360.962 147.568 360.121 147.239 358.985 147.011L354.451 146.108C351.894 145.597 349.99 144.71 348.74 143.449C347.502 142.187 346.882 140.58 346.882 138.625C346.882 136.943 347.337 135.494 348.246 134.278C349.166 133.062 350.456 132.125 352.115 131.466C353.786 130.807 355.74 130.477 357.979 130.477C361.286 130.477 363.888 131.176 365.786 132.574C367.695 133.972 368.809 135.875 369.127 138.284ZM395.609 138.284L388.962 138.693C388.848 138.125 388.604 137.614 388.229 137.159C387.854 136.693 387.359 136.324 386.746 136.051C386.144 135.767 385.422 135.625 384.581 135.625C383.456 135.625 382.507 135.864 381.734 136.341C380.962 136.807 380.575 137.432 380.575 138.216C380.575 138.841 380.825 139.369 381.325 139.801C381.825 140.233 382.683 140.58 383.899 140.841L388.638 141.795C391.183 142.318 393.081 143.159 394.331 144.318C395.581 145.477 396.206 147 396.206 148.886C396.206 150.602 395.7 152.108 394.689 153.403C393.689 154.699 392.314 155.71 390.564 156.438C388.825 157.153 386.82 157.511 384.547 157.511C381.081 157.511 378.32 156.79 376.263 155.347C374.217 153.892 373.019 151.915 372.666 149.415L379.808 149.04C380.024 150.097 380.547 150.903 381.376 151.46C382.206 152.006 383.269 152.278 384.564 152.278C385.837 152.278 386.859 152.034 387.632 151.545C388.416 151.045 388.814 150.403 388.825 149.619C388.814 148.96 388.536 148.42 387.99 148C387.445 147.568 386.604 147.239 385.467 147.011L380.933 146.108C378.376 145.597 376.473 144.71 375.223 143.449C373.984 142.187 373.365 140.58 373.365 138.625C373.365 136.943 373.82 135.494 374.729 134.278C375.649 133.062 376.939 132.125 378.598 131.466C380.269 130.807 382.223 130.477 384.462 130.477C387.769 130.477 390.371 131.176 392.269 132.574C394.178 133.972 395.291 135.875 395.609 138.284Z" fill="white"/>
</svg>
