<svg width="24" height="25" viewBox="0 0 24 25" fill="none" xmlns="http://www.w3.org/2000/svg">
<path fill-rule="evenodd" clip-rule="evenodd" d="M16.1804 22.0556C18.4891 22.0556 20.3607 20.2698 20.3607 18.067V13.19C20.3607 12.4818 20.6555 11.8027 21.1803 11.302C22.3962 10.1419 22.2381 8.21972 20.8475 7.25473L14.4588 2.82147C12.9929 1.8043 11.0071 1.8043 9.54124 2.82147L3.15251 7.25473C1.76187 8.21972 1.60381 10.1419 2.81969 11.302C3.34447 11.8027 3.6393 12.4818 3.6393 13.19V18.067C3.6393 20.2698 5.5109 22.0556 7.81965 22.0556H16.1804ZM8.66667 12.3909C8.66667 10.5499 10.1591 9.05754 12 9.05754C13.841 9.05754 15.3333 10.5499 15.3333 12.3909V13.624C15.3333 14.2191 15.5797 14.7876 16.0139 15.1946C16.7258 15.862 16.2536 17.0563 15.2777 17.0563H8.72227C7.74644 17.0563 7.27418 15.862 7.98614 15.1946C8.42032 14.7876 8.66667 14.2191 8.66667 13.624V12.3909ZM11 18.306C10.5858 18.306 10.25 18.6418 10.25 19.056C10.25 19.4703 10.5858 19.806 11 19.806H13C13.4142 19.806 13.75 19.4703 13.75 19.056C13.75 18.6418 13.4142 18.306 13 18.306H11Z" fill="black"/>
</svg>
