<svg width="25" height="24" viewBox="0 0 25 24" fill="none" xmlns="http://www.w3.org/2000/svg">
<path d="M16.4858 8C18.0771 8 19.6033 8.63214 20.7285 9.75736C21.8537 10.8826 22.4858 12.4087 22.4858 14V21H18.4858V14C18.4858 13.4696 18.2751 12.9609 17.9001 12.5858C17.525 12.2107 17.0163 12 16.4858 12C15.9554 12 15.4467 12.2107 15.0716 12.5858C14.6966 12.9609 14.4858 13.4696 14.4858 14V21H10.4858V14C10.4858 12.4087 11.118 10.8826 12.2432 9.75736C13.3684 8.63214 14.8945 8 16.4858 8V8Z" stroke="white" stroke-width="2" stroke-linecap="round" stroke-linejoin="round"/>
<path d="M6.48584 9H2.48584V21H6.48584V9Z" stroke="white" stroke-width="2" stroke-linecap="round" stroke-linejoin="round"/>
<path d="M4.48584 6C5.59041 6 6.48584 5.10457 6.48584 4C6.48584 2.89543 5.59041 2 4.48584 2C3.38127 2 2.48584 2.89543 2.48584 4C2.48584 5.10457 3.38127 6 4.48584 6Z" stroke="white" stroke-width="2" stroke-linecap="round" stroke-linejoin="round"/>
</svg>
