<svg width="24" height="90" viewBox="0 0 24 90" fill="none" xmlns="http://www.w3.org/2000/svg">
<path d="M22.0002 11.0799V11.9999C21.999 14.1563 21.3007 16.2545 20.0096 17.9817C18.7184 19.7088 16.9035 20.9723 14.8356 21.5838C12.7677 22.1952 10.5575 22.1218 8.53471 21.3744C6.51193 20.6271 4.7849 19.246 3.6112 17.4369C2.43751 15.6279 1.88004 13.4879 2.02192 11.3362C2.16381 9.18443 2.99745 7.13619 4.39852 5.49694C5.7996 3.85768 7.69303 2.71525 9.79643 2.24001C11.8998 1.76477 14.1005 1.9822 16.0702 2.85986" stroke="white" stroke-width="2" stroke-linecap="round" stroke-linejoin="round"/>
<path d="M22.0005 4L12.0005 14.01L9.00049 11.01" stroke="white" stroke-width="2" stroke-linecap="round" stroke-linejoin="round"/>
<path d="M22.0002 77.0799V77.9999C21.999 80.1563 21.3007 82.2545 20.0096 83.9817C18.7184 85.7088 16.9035 86.9723 14.8356 87.5838C12.7677 88.1952 10.5575 88.1218 8.53471 87.3744C6.51193 86.6271 4.7849 85.246 3.6112 83.4369C2.43751 81.6279 1.88004 79.4879 2.02192 77.3362C2.16381 75.1844 2.99745 73.1362 4.39852 71.4969C5.7996 69.8577 7.69303 68.7152 9.79643 68.24C11.8998 67.7648 14.1005 67.9822 16.0702 68.8599" stroke="white" stroke-width="2" stroke-linecap="round" stroke-linejoin="round"/>
<path d="M22.0005 70L12.0005 80.01L9.00049 77.01" stroke="white" stroke-width="2" stroke-linecap="round" stroke-linejoin="round"/>
</svg>
