<svg width="122" height="40" viewBox="0 0 122 40" fill="none" xmlns="http://www.w3.org/2000/svg">
<path d="M74.7842 12.416C74.8002 12.224 74.8162 11.92 74.8162 11.52C74.8162 10.256 74.4162 9.216 73.6322 8.432C72.8482 7.648 71.8242 7.248 70.5602 7.248C69.3282 7.248 68.2562 7.68 67.3602 8.56C66.4802 9.44 66.0322 10.48 66.0322 11.712C66.0322 13.024 66.4802 14.096 67.3762 14.944C68.2882 15.776 69.3922 16.192 70.7202 16.192C72.4642 16.192 73.6802 15.552 74.4002 14.256L72.5922 13.072C72.2082 13.696 71.4402 14.096 70.6882 14.096C69.6162 14.096 68.7202 13.456 68.5762 12.416H74.7842ZM68.6402 10.768C68.6882 10.432 68.8802 10.096 69.2162 9.776C69.5522 9.44 69.9842 9.28 70.4962 9.28C71.6322 9.28 72.2562 10.016 72.3202 10.768H68.6402ZM79.1035 2.96H76.5915V16H79.1035V2.96ZM82.636 2.928C81.804 2.928 81.1 3.632 81.1 4.48C81.1 5.328 81.804 6.016 82.636 6.016C83.516 6.016 84.204 5.328 84.204 4.48C84.204 3.6 83.516 2.928 82.636 2.928ZM83.916 16V7.456H81.404V16H83.916ZM91.4965 13.888C91.3205 13.936 91.1285 13.952 90.9205 13.952C89.9445 13.952 89.4325 13.568 89.4325 12.592V9.616H91.5445V7.456H89.4325V4.784H86.9685V7.456H85.4005V9.616H86.9365V12.896C86.9365 14.896 88.1045 16.112 90.3285 16.112C90.7445 16.112 91.1285 16.064 91.4965 15.952V13.888ZM101.534 12.416C101.55 12.224 101.566 11.92 101.566 11.52C101.566 10.256 101.166 9.216 100.382 8.432C99.5982 7.648 98.5742 7.248 97.3102 7.248C96.0782 7.248 95.0062 7.68 94.1102 8.56C93.2302 9.44 92.7822 10.48 92.7822 11.712C92.7822 13.024 93.2302 14.096 94.1262 14.944C95.0382 15.776 96.1422 16.192 97.4702 16.192C99.2142 16.192 100.43 15.552 101.15 14.256L99.3422 13.072C98.9582 13.696 98.1902 14.096 97.4382 14.096C96.3662 14.096 95.4702 13.456 95.3262 12.416H101.534ZM95.3902 10.768C95.4382 10.432 95.6302 10.096 95.9662 9.776C96.3022 9.44 96.7342 9.28 97.2462 9.28C98.3822 9.28 99.0062 10.016 99.0702 10.768H95.3902Z" fill="#040628"/>
<path d="M69.8082 32.532C70.1762 32.532 70.5122 32.484 70.7842 32.404V31.364C70.6082 31.412 70.3522 31.428 70.0162 31.428C69.0882 31.428 68.6242 31.028 68.6242 30.228V25.028H70.7842V23.924H68.6242V21.46H67.3922V23.924H65.8082V25.028H67.3922V30.26C67.3922 31.78 68.1922 32.532 69.8082 32.532ZM80.2745 28.58C80.2905 28.5 80.2905 28.356 80.2905 28.164C80.2905 26.868 79.9385 25.828 79.2345 25.012C78.5305 24.196 77.5385 23.78 76.2585 23.78C75.0905 23.78 74.0985 24.212 73.2985 25.092C72.4985 25.972 72.0985 26.996 72.0985 28.18C72.0985 29.412 72.5145 30.468 73.3465 31.332C74.1785 32.18 75.2025 32.612 76.4345 32.612C77.9705 32.612 79.3305 31.812 80.0505 30.404L79.1225 29.796C78.6265 30.82 77.6185 31.508 76.4185 31.508C75.5865 31.508 74.8825 31.236 74.3065 30.676C73.7305 30.116 73.4105 29.412 73.3625 28.58H80.2745ZM73.3785 27.524C73.4905 26.788 73.8105 26.164 74.3545 25.652C74.8985 25.124 75.5385 24.868 76.2585 24.868C77.8585 24.868 78.8505 25.924 79.0265 27.524H73.3785ZM83.0972 28.148C83.0972 27.236 83.3852 26.468 83.9612 25.844C84.5532 25.204 85.2892 24.884 86.1852 24.884C87.5932 24.884 88.4732 25.684 88.8572 26.756L89.9452 26.276C89.4492 24.852 88.1052 23.78 86.1852 23.78C84.9692 23.78 83.9292 24.212 83.0812 25.06C82.2332 25.908 81.8172 26.964 81.8172 28.196C81.8172 29.46 82.2332 30.516 83.0652 31.364C83.9132 32.196 84.9372 32.612 86.1692 32.612C88.1052 32.612 89.4492 31.54 89.9772 30.068L88.8892 29.588C88.3932 30.868 87.4812 31.508 86.1852 31.508C85.2732 31.508 84.5372 31.172 83.9612 30.516C83.3852 29.86 83.0972 29.06 83.0972 28.148ZM99.443 32.468V27.188C99.443 25.14 98.259 23.764 96.211 23.764C94.947 23.764 93.971 24.324 93.283 25.46V19.444H92.035V32.468H93.283V27.604C93.283 26.836 93.523 26.196 94.003 25.684C94.483 25.156 95.091 24.9 95.827 24.9C97.363 24.9 98.195 25.908 98.195 27.492V32.468H99.443ZM109.552 32.468V27.188C109.552 25.14 108.368 23.764 106.32 23.764C105.024 23.764 104.048 24.34 103.376 25.492V23.924H102.144V32.468H103.392V27.604C103.392 26.836 103.632 26.196 104.112 25.684C104.592 25.156 105.2 24.9 105.936 24.9C107.472 24.9 108.304 25.908 108.304 27.492V32.468H109.552ZM119.806 28.58C119.822 28.5 119.822 28.356 119.822 28.164C119.822 26.868 119.47 25.828 118.766 25.012C118.062 24.196 117.07 23.78 115.79 23.78C114.622 23.78 113.63 24.212 112.83 25.092C112.03 25.972 111.63 26.996 111.63 28.18C111.63 29.412 112.046 30.468 112.878 31.332C113.71 32.18 114.734 32.612 115.966 32.612C117.502 32.612 118.862 31.812 119.582 30.404L118.654 29.796C118.158 30.82 117.15 31.508 115.95 31.508C115.118 31.508 114.414 31.236 113.838 30.676C113.262 30.116 112.942 29.412 112.894 28.58H119.806ZM112.91 27.524C113.022 26.788 113.342 26.164 113.886 25.652C114.43 25.124 115.07 24.868 115.79 24.868C117.39 24.868 118.382 25.924 118.558 27.524H112.91Z" fill="#1C40C9"/>
<path d="M24.9347 16.549C24.9335 17.6528 24.4943 18.7111 23.7137 19.4916C22.9331 20.2721 21.8747 20.7112 20.7707 20.7124H6.29639L11.1069 12.3809H20.7707C21.8747 12.3846 22.9324 12.8251 23.7126 13.6061C24.4928 14.3871 24.9322 15.4451 24.9347 16.549Z" fill="#1C40C9"/>
<path d="M24.9271 27.4417C24.9258 28.5456 24.4867 29.6038 23.7061 30.3843C22.9255 31.1648 21.8671 31.6039 20.7631 31.6051H0L4.81049 23.2783H20.7631C21.8667 23.2808 22.9243 23.7203 23.7047 24.5005C24.4851 25.2808 24.9246 26.3383 24.9271 27.4417Z" fill="#040628"/>
<path d="M61.285 1.49414L56.4745 9.82096L43.8968 31.6076H34.2758L46.8582 9.82096H12.5811L17.3868 1.49414H61.285Z" fill="#040628"/>
</svg>
