<svg width="254" height="139" viewBox="0 0 254 139" fill="none" xmlns="http://www.w3.org/2000/svg">
<path d="M172.888 26.5871L172.561 25.1115L181.353 23.1623L181.68 24.6379L178.136 25.4237L180.327 35.3087L178.619 35.6875L176.427 25.8025L172.888 26.5871ZM186.219 28.695L187.34 33.754L185.682 34.1217L183.163 22.7611L184.799 22.3983L185.737 26.6253L185.842 26.6019C185.94 26.0991 186.164 25.6672 186.515 25.3062C186.866 24.9452 187.372 24.6914 188.034 24.5446C188.618 24.4151 189.155 24.4221 189.645 24.5658C190.138 24.7086 190.558 24.9919 190.904 25.4156C191.253 25.8349 191.506 26.3995 191.664 27.1096L192.865 32.5291L191.207 32.8968L190.049 27.677C189.911 27.052 189.643 26.6032 189.245 26.3306C188.846 26.0543 188.36 25.9797 187.787 26.1068C187.395 26.1937 187.062 26.3548 186.788 26.59C186.518 26.8245 186.33 27.1223 186.224 27.4834C186.12 27.8399 186.119 28.2438 186.219 28.695ZM198.789 31.3963C197.949 31.5824 197.187 31.5633 196.501 31.3391C195.817 31.1103 195.239 30.7051 194.764 30.1235C194.293 29.5374 193.959 28.8024 193.764 27.9186C193.57 27.0458 193.562 26.2405 193.74 25.5027C193.922 24.7641 194.265 24.1429 194.77 23.639C195.279 23.1343 195.929 22.7943 196.721 22.6188C197.201 22.5122 197.685 22.4884 198.171 22.5474C198.658 22.6064 199.118 22.7663 199.552 23.027C199.986 23.2877 200.367 23.6669 200.695 24.1646C201.022 24.6586 201.271 25.292 201.442 26.0649L201.572 26.6529L194.799 28.1545L194.524 26.9119L199.672 25.7707C199.575 25.3343 199.4 24.9676 199.148 24.6704C198.895 24.3695 198.586 24.1567 198.221 24.0321C197.86 23.9066 197.464 23.8914 197.035 23.9865C196.57 24.0898 196.188 24.2946 195.891 24.601C195.597 24.9028 195.397 25.2577 195.289 25.6656C195.185 26.069 195.18 26.4833 195.274 26.9086L195.489 27.8794C195.615 28.4489 195.823 28.9112 196.111 29.2663C196.403 29.6206 196.753 29.863 197.162 29.9934C197.571 30.1202 198.017 30.1299 198.502 30.0225C198.816 29.9528 199.093 29.8448 199.332 29.6987C199.57 29.5489 199.764 29.3624 199.912 29.1394C200.061 28.9164 200.155 28.6607 200.196 28.3723L201.829 28.3072C201.805 28.7973 201.67 29.2523 201.421 29.672C201.176 30.0873 200.83 30.4452 200.385 30.7457C199.942 31.0417 199.41 31.2585 198.789 31.3963ZM208.514 29.0599L205.995 17.6994L210.155 16.7771C210.962 16.5983 211.659 16.5835 212.246 16.7325C212.833 16.8778 213.308 17.147 213.671 17.5399C214.033 17.9292 214.276 18.4049 214.4 18.967C214.505 19.4403 214.507 19.859 214.405 20.223C214.303 20.5832 214.127 20.8938 213.879 21.1545C213.633 21.4108 213.346 21.6218 213.018 21.7876L213.043 21.8986C213.424 21.8334 213.819 21.8739 214.228 22.02C214.639 22.1615 215.009 22.4113 215.337 22.7693C215.664 23.1273 215.893 23.6003 216.024 24.1883C216.152 24.7689 216.131 25.3207 215.96 25.8436C215.792 26.362 215.454 26.8189 214.948 27.2143C214.442 27.606 213.748 27.8994 212.868 28.0946L208.514 29.0599ZM209.902 27.2099L212.376 26.6615C213.197 26.4795 213.75 26.1901 214.034 25.7933C214.319 25.3966 214.408 24.9597 214.302 24.4826C214.223 24.1239 214.059 23.8149 213.811 23.5555C213.564 23.2961 213.252 23.115 212.876 23.0121C212.504 22.9084 212.089 22.9073 211.63 23.009L209.095 23.571L209.902 27.2099ZM208.799 22.2342L211.095 21.725C211.48 21.6398 211.809 21.4891 212.083 21.2732C212.361 21.0564 212.561 20.7948 212.683 20.4883C212.808 20.1774 212.83 19.8389 212.749 19.4727C212.645 19.0031 212.393 18.6457 211.994 18.4007C211.594 18.1556 211.054 18.1085 210.373 18.2593L208.033 18.7783L208.799 22.2342ZM218.601 26.8236L216.712 18.3032L218.315 17.9478L218.615 19.3013L218.704 19.2816C218.758 18.7886 218.951 18.3674 219.285 18.0179C219.622 17.6639 220.04 17.4316 220.539 17.3209C220.643 17.298 220.766 17.2746 220.908 17.2508C221.054 17.2263 221.168 17.2105 221.252 17.2036L221.604 18.79C221.533 18.7863 221.41 18.7922 221.235 18.8077C221.06 18.8196 220.887 18.8443 220.716 18.882C220.324 18.9689 219.993 19.1296 219.723 19.3641C219.456 19.594 219.266 19.8748 219.154 20.2063C219.04 20.5341 219.024 20.8829 219.106 21.2527L220.26 26.4559L218.601 26.8236ZM227.041 25.1503C226.501 25.27 225.991 25.2784 225.51 25.1754C225.029 25.0688 224.618 24.8514 224.278 24.5234C223.941 24.1946 223.711 23.7509 223.587 23.1925C223.48 22.7118 223.485 22.2956 223.601 21.9439C223.717 21.5923 223.912 21.291 224.186 21.0401C224.46 20.7893 224.781 20.5745 225.149 20.396C225.517 20.2175 225.897 20.0595 226.29 19.922C226.787 19.7497 227.19 19.6098 227.5 19.5023C227.809 19.3912 228.026 19.2752 228.15 19.1545C228.275 19.0337 228.315 18.8735 228.271 18.6738L228.262 18.635C228.155 18.1506 227.935 17.8055 227.602 17.5999C227.273 17.3935 226.841 17.3498 226.304 17.4686C225.746 17.5924 225.333 17.8139 225.067 18.133C224.803 18.4476 224.643 18.7682 224.587 19.0948L222.95 19.0853C223.02 18.5266 223.197 18.0488 223.482 17.6521C223.769 17.2508 224.13 16.9264 224.564 16.6789C224.997 16.4277 225.471 16.2451 225.985 16.1311C226.325 16.0557 226.694 16.0165 227.093 16.0134C227.495 16.0058 227.886 16.0705 228.265 16.2075C228.649 16.3437 228.991 16.584 229.292 16.9284C229.593 17.2692 229.812 17.7502 229.95 18.3715L231.204 24.0296L229.584 24.3886L229.326 23.2237L229.26 23.2385C229.2 23.4768 229.086 23.7232 228.917 23.9779C228.749 24.2325 228.511 24.4655 228.205 24.677C227.899 24.8884 227.511 25.0462 227.041 25.1503ZM227.107 23.7391C227.565 23.6374 227.937 23.4599 228.222 23.2066C228.511 22.9524 228.709 22.6604 228.814 22.3305C228.922 21.9961 228.939 21.6607 228.864 21.3241L228.621 20.2258C228.575 20.2981 228.472 20.379 228.314 20.4685C228.158 20.5534 227.977 20.6382 227.771 20.7227C227.564 20.8035 227.362 20.8813 227.165 20.956C226.967 21.027 226.802 21.0869 226.669 21.1357C226.356 21.2477 226.078 21.3813 225.833 21.5365C225.591 21.6908 225.411 21.8762 225.293 22.0927C225.177 22.3046 225.151 22.5585 225.217 22.8544C225.308 23.2649 225.528 23.5419 225.878 23.6855C226.228 23.8253 226.637 23.8432 227.107 23.7391ZM233.95 18.1131L235.072 23.1721L233.413 23.5398L231.524 15.0194L233.116 14.6664L233.424 16.0532L233.529 16.0299C233.625 15.5352 233.852 15.1048 234.209 14.7385C234.57 14.3714 235.07 14.1169 235.71 13.9751C236.291 13.8463 236.826 13.8556 237.317 14.003C237.806 14.1466 238.224 14.4303 238.57 14.8541C238.917 15.2778 239.167 15.841 239.323 16.5437L240.525 21.9632L238.866 22.3309L237.709 17.1111C237.572 16.4935 237.304 16.0466 236.905 15.7703C236.506 15.4903 236.025 15.4126 235.463 15.5372C235.078 15.6225 234.755 15.7815 234.492 16.0143C234.233 16.2463 234.052 16.5425 233.95 16.9027C233.85 17.2585 233.85 17.6619 233.95 18.1131ZM245.976 20.9294C245.288 21.0819 244.635 21.0423 244.017 20.8107C243.402 20.5746 242.869 20.1632 242.417 19.5767C241.968 18.9857 241.641 18.2298 241.437 17.3089C241.233 16.3881 241.211 15.5664 241.373 14.8438C241.539 14.1203 241.853 13.525 242.316 13.0577C242.779 12.5903 243.352 12.2808 244.036 12.1292C244.565 12.0119 245.01 12.0064 245.371 12.1126C245.735 12.2142 246.032 12.3619 246.261 12.5555C246.494 12.7483 246.68 12.9224 246.819 13.0778L246.919 13.0557L245.983 8.83428L247.642 8.46658L250.16 19.8271L248.54 20.1862L248.246 18.8604L248.108 18.8912C248.048 19.0945 247.95 19.3336 247.813 19.6084C247.68 19.8824 247.469 20.1423 247.183 20.3883C246.896 20.6342 246.493 20.8146 245.976 20.9294ZM246.028 19.4337C246.505 19.3279 246.88 19.1128 247.154 18.7884C247.43 18.4595 247.603 18.0505 247.673 17.5617C247.747 17.072 247.718 16.5276 247.585 15.9285C247.454 15.3368 247.254 14.8379 246.985 14.4318C246.717 14.0258 246.391 13.7353 246.006 13.5605C245.622 13.3857 245.188 13.352 244.704 13.4594C244.204 13.5701 243.817 13.7918 243.542 14.1244C243.266 14.4571 243.093 14.866 243.022 15.3512C242.955 15.8355 242.984 16.3588 243.108 16.9209C243.235 17.4904 243.433 17.9837 243.704 18.4009C243.975 18.818 244.306 19.1228 244.698 19.3153C245.093 19.5033 245.536 19.5427 246.028 19.4337Z" fill="#606060"/>
<path d="M136.225 92.02C137.187 90.3534 139.593 90.3534 140.555 92.02L157.876 122.02C158.838 123.687 157.635 125.77 155.711 125.77H121.07C119.145 125.77 117.942 123.687 118.905 122.02L136.225 92.02Z" fill="#040628"/>
<rect x="43.063" y="104.048" width="200" height="4.26829" rx="2.13415" transform="rotate(-12.5 43.063 104.048)" fill="#040628"/>
<path d="M3.0726 54.5201L2.70696 53.0536L11.4451 50.875L11.8108 52.3414L8.28794 53.2198L10.7374 63.044L9.03938 63.4674L6.58992 53.6431L3.0726 54.5201ZM16.4537 56.2783L17.7073 61.3062L16.0589 61.7172L13.2438 50.4265L14.8701 50.021L15.9175 54.222L16.0223 54.1959C16.1071 53.6906 16.3201 53.253 16.6611 52.883C17.0022 52.513 17.5017 52.2459 18.1596 52.0819C18.7403 51.9371 19.2773 51.9301 19.7705 52.0609C20.2675 52.1907 20.6945 52.4629 21.0516 52.8775C21.4115 53.2875 21.6794 53.8453 21.8553 54.5509L23.1983 59.9372L21.5499 60.3482L20.2564 55.1604C20.1015 54.5393 19.8216 54.0977 19.4166 53.8356C19.0107 53.5698 18.5229 53.508 17.9533 53.65C17.5637 53.7471 17.2351 53.9169 16.9676 54.1592C16.7038 54.4007 16.5236 54.7033 16.4269 55.067C16.3329 55.4262 16.3419 55.83 16.4537 56.2783ZM29.0902 58.6497C28.2559 58.8577 27.4929 58.8586 26.8013 58.6524C26.1124 58.4416 25.5233 58.0517 25.034 57.4827C24.5474 56.9091 24.1947 56.1831 23.9756 55.3047C23.7594 54.4373 23.7305 53.6325 23.889 52.8903C24.0511 52.1472 24.3781 51.5172 24.87 51.0003C25.3655 50.4824 26.0065 50.1255 26.793 49.9294C27.2708 49.8102 27.7536 49.7738 28.2414 49.82C28.7292 49.8663 29.1935 50.014 29.6343 50.2633C30.0751 50.5125 30.4658 50.8816 30.8063 51.3706C31.1459 51.8559 31.4115 52.4826 31.603 53.2507L31.7487 53.8351L25.0173 55.5134L24.7094 54.2785L29.8255 53.0029C29.7174 52.5692 29.5334 52.2072 29.2736 51.9167C29.0129 51.6225 28.6984 51.4179 28.33 51.3029C27.9654 51.1869 27.5699 51.182 27.1436 51.2883C26.6805 51.4038 26.3046 51.6185 26.0159 51.9325C25.73 52.242 25.5387 52.602 25.442 53.0126C25.348 53.4186 25.3537 53.8329 25.4591 54.2556L25.6996 55.2203C25.8408 55.7864 26.06 56.2431 26.3575 56.5905C26.6586 56.9371 27.0153 57.1702 27.4278 57.2899C27.8393 57.4059 28.2858 57.4039 28.7672 57.2838C29.0796 57.2059 29.3535 57.0908 29.5888 56.9385C29.8231 56.7824 30.0116 56.591 30.1541 56.3642C30.2967 56.1374 30.3846 55.8793 30.4178 55.5899L32.0481 55.4821C32.0377 55.9726 31.9138 56.431 31.6765 56.8571C31.442 57.2786 31.106 57.6454 30.6685 57.9575C30.2338 58.265 29.7077 58.4957 29.0902 58.6497ZM38.7505 56.0596L35.9355 44.7688L39.96 43.7654C40.8384 43.5464 41.606 43.5248 42.2627 43.7007C42.9195 43.8766 43.4604 44.2063 43.8854 44.6898C44.3096 45.1696 44.6078 45.755 44.7801 46.446C44.9533 47.1407 44.9639 47.8017 44.8119 48.429C44.6627 49.0518 44.338 49.5973 43.8379 50.0655C43.3406 50.5292 42.6546 50.87 41.7799 51.0881L39.0123 51.7781L38.6522 50.3337L41.2654 49.6822C41.8204 49.5438 42.2468 49.336 42.5446 49.0587C42.8415 48.7778 43.0291 48.45 43.1075 48.0752C43.1858 47.7004 43.1718 47.2998 43.0655 46.8735C42.9592 46.4472 42.784 46.0888 42.5398 45.7983C42.2956 45.5078 41.9755 45.3124 41.5796 45.212C41.1874 45.1107 40.7083 45.1306 40.1423 45.2717L38.0032 45.8051L40.4541 55.6348L38.7505 56.0596ZM48.5486 53.6166L46.4373 45.1486L48.0306 44.7513L48.3659 46.0965L48.4542 46.0745C48.4949 45.5803 48.6775 45.1541 49.0021 44.7961C49.3293 44.4334 49.7411 44.1902 50.2372 44.0665C50.3401 44.0408 50.4624 44.0143 50.6038 43.9868C50.749 43.9584 50.8634 43.9396 50.947 43.9305L51.3401 45.5072C51.2694 45.5054 51.1468 45.5145 50.9722 45.5346C50.7967 45.551 50.6244 45.5803 50.4554 45.6224C50.0658 45.7196 49.7391 45.8889 49.4753 46.1303C49.2142 46.3672 49.0317 46.6528 48.9276 46.9871C48.8227 47.3178 48.816 47.6669 48.9077 48.0344L50.197 53.2056L48.5486 53.6166ZM57.8132 51.4882C57.0193 51.6862 56.2811 51.677 55.5987 51.4607C54.9162 51.2443 54.3299 50.8498 53.8397 50.2772C53.3494 49.7045 52.9953 48.9808 52.7772 48.1061C52.5582 47.2277 52.5302 46.4188 52.6933 45.6793C52.8563 44.9399 53.1884 44.3144 53.6894 43.803C54.1904 43.2916 54.8379 42.937 55.6317 42.739C56.4256 42.5411 57.1638 42.5503 57.8462 42.7666C58.5287 42.983 59.1155 43.3793 59.6066 43.9556C60.0978 44.5319 60.4528 45.2593 60.6719 46.1377C60.8899 47.0125 60.917 47.8177 60.753 48.5535C60.589 49.2893 60.2565 49.9129 59.7555 50.4242C59.2545 50.9356 58.607 51.2903 57.8132 51.4882ZM57.4737 50.1031C57.9882 49.9748 58.3806 49.7325 58.651 49.3762C58.9213 49.02 59.081 48.5956 59.13 48.1032C59.1826 47.6099 59.1412 47.0913 59.0055 46.5473C58.8708 46.0071 58.6644 45.5315 58.3863 45.1207C58.111 44.7052 57.7699 44.4019 57.363 44.2105C56.9562 44.0192 56.4954 43.9876 55.9809 44.1159C55.4627 44.2451 55.067 44.4902 54.7939 44.8511C54.5245 45.211 54.3639 45.6395 54.3122 46.1365C54.2632 46.6289 54.306 47.1452 54.4407 47.6855C54.5764 48.2294 54.7814 48.7073 55.0558 49.119C55.3339 49.5299 55.6759 49.8291 56.0819 50.0168C56.4915 50.2035 56.9554 50.2323 57.4737 50.1031ZM66.7691 49.2494C66.0855 49.4199 65.4319 49.3974 64.8082 49.182C64.1873 48.9621 63.6432 48.5649 63.176 47.9904C62.7115 47.4113 62.3651 46.6642 62.137 45.749C61.9088 44.8339 61.8661 44.013 62.009 43.2864C62.1555 42.5589 62.454 41.9555 62.9045 41.4762C63.3549 40.9969 63.9201 40.6725 64.6001 40.503C65.1257 40.3719 65.5703 40.3548 65.9341 40.4515C66.3006 40.5436 66.6009 40.6834 66.835 40.871C67.0729 41.0576 67.2634 41.2268 67.4066 41.3784L67.5058 41.3537L66.4598 37.1583L68.1082 36.7473L70.9233 48.038L69.3135 48.4394L68.985 47.1217L68.8471 47.1561C68.7928 47.3609 68.7008 47.6025 68.5711 47.8808C68.445 48.1582 68.2418 48.4235 67.9615 48.6769C67.6811 48.9303 67.2837 49.1211 66.7691 49.2494ZM66.7825 47.7529C67.2566 47.6347 67.626 47.4098 67.8908 47.0783C68.1584 46.7423 68.3208 46.329 68.3781 45.8384C68.439 45.3469 68.3953 44.8035 68.2468 44.2081C68.1002 43.62 67.8874 43.1266 67.6083 42.7277C67.3293 42.3288 66.9955 42.047 66.607 41.8823C66.2185 41.7176 65.7835 41.6953 65.3021 41.8153C64.8059 41.939 64.4245 42.1708 64.1578 42.5105C63.8912 42.8503 63.7288 43.2636 63.6706 43.7504C63.6161 44.2364 63.6585 44.7587 63.7978 45.3174C63.9389 45.8834 64.1503 46.3713 64.4321 46.7812C64.7139 47.1912 65.0532 47.4872 65.4499 47.6694C65.8495 47.8469 66.2936 47.8748 66.7825 47.7529ZM77.7646 42.6022L76.5289 37.6459L78.1828 37.2336L80.2941 45.7016L78.6733 46.1057L78.3076 44.6392L78.2194 44.6612C78.1373 45.1619 77.9189 45.6165 77.564 46.0251C77.2119 46.4291 76.7179 46.7104 76.0821 46.8689C75.5381 47.0045 75.0268 47.0051 74.5483 46.8707C74.0725 46.7316 73.656 46.4549 73.2989 46.0403C72.9455 45.6248 72.6817 45.0679 72.5076 44.3696L71.1647 38.9834L72.8131 38.5724L74.1065 43.7601C74.2504 44.3372 74.5248 44.7567 74.9298 45.0188C75.3348 45.2809 75.7927 45.3483 76.3036 45.2209C76.6123 45.1439 76.9 44.9902 77.1665 44.7598C77.4368 44.5284 77.634 44.2314 77.7583 43.8686C77.8862 43.5048 77.8883 43.0827 77.7646 42.6022ZM86.1185 44.4309C85.2989 44.6353 84.547 44.6256 83.8627 44.4019C83.1811 44.1737 82.6003 43.77 82.1202 43.1909C81.6401 42.6118 81.2942 41.8978 81.0825 41.0488C80.8681 40.1887 80.8406 39.3895 81 38.6509C81.1585 37.9087 81.4855 37.2787 81.981 36.7609C82.4765 36.243 83.123 35.8847 83.9205 35.6859C84.5637 35.5255 85.1669 35.502 85.73 35.6153C86.2921 35.725 86.7807 35.9545 87.1958 36.3039C87.6145 36.6524 87.9242 37.1041 88.1251 37.6591L86.5208 38.0591C86.3336 37.6842 86.0462 37.3928 85.6587 37.1849C85.2748 36.9761 84.8201 36.9372 84.2945 37.0683C83.8351 37.1828 83.4629 37.4044 83.1779 37.7332C82.8956 38.0573 82.7144 38.4655 82.6341 38.9579C82.553 39.4466 82.5876 39.9923 82.7378 40.5951C82.8918 41.2125 83.1184 41.7221 83.4176 42.1238C83.7169 42.5254 84.0681 42.8068 84.4713 42.9678C84.8782 43.1279 85.315 43.1498 85.7818 43.0334C86.0942 42.9555 86.363 42.828 86.5882 42.6508C86.8161 42.469 86.9894 42.2482 87.1081 41.9883C87.2305 41.7275 87.2885 41.4358 87.2823 41.1133L88.8866 40.7133C88.9643 41.2756 88.9079 41.8089 88.7175 42.3131C88.527 42.8174 88.2125 43.2549 87.774 43.6258C87.3393 43.9958 86.7874 44.2642 86.1185 44.4309ZM93.159 33.4996L93.4889 34.8227L88.8634 35.976L88.5335 34.6528L93.159 33.4996ZM89.2681 32.3148L90.9165 31.9038L92.9137 39.9142C92.9935 40.234 93.1013 40.4628 93.2371 40.6007C93.3721 40.7349 93.5223 40.8126 93.6876 40.8339C93.8557 40.8505 94.0298 40.8364 94.2099 40.7915C94.3422 40.7585 94.4557 40.7204 94.5504 40.6773C94.645 40.6342 94.7185 40.6002 94.7709 40.5755L95.4081 41.863C95.3218 41.9235 95.1949 41.9942 95.0277 42.0749C94.8613 42.1594 94.6463 42.2364 94.3826 42.306C93.9507 42.4215 93.5272 42.4451 93.112 42.3769C92.6968 42.3087 92.3313 42.1343 92.0154 41.8539C91.6996 41.5735 91.4779 41.1779 91.3506 40.667L89.2681 32.3148Z" fill="#606060"/>
<rect x="34.731" y="64.7671" width="35" height="35" rx="3.5" transform="rotate(-12.5 34.731 64.7671)" fill="#040628"/>
<rect x="201.254" y="37.0708" width="25" height="25" rx="3.5" transform="rotate(-12.5 201.254 37.0708)" fill="#1C40C9"/>
</svg>
