<svg width="25" height="24" viewBox="0 0 25 24" fill="none" xmlns="http://www.w3.org/2000/svg">
<g clip-path="url(#clip0_119_319)">
<path d="M23.2427 2.99998C22.2851 3.67546 21.2248 4.19209 20.1027 4.52999C19.5004 3.8375 18.7 3.34668 17.8097 3.12391C16.9194 2.90115 15.9822 2.95718 15.1248 3.28444C14.2673 3.6117 13.5311 4.19439 13.0157 4.9537C12.5002 5.71302 12.2304 6.61232 12.2427 7.52998V8.52998C10.4853 8.57555 8.74395 8.1858 7.17368 7.39543C5.60342 6.60506 4.25299 5.43862 3.24268 3.99998C3.24268 3.99998 -0.757324 13 8.24268 17C6.1832 18.398 3.72983 19.0989 1.24268 19C10.2427 24 21.2427 19 21.2427 7.49998C21.2418 7.22144 21.215 6.94358 21.1627 6.66999C22.1833 5.66348 22.9035 4.3927 23.2427 2.99998V2.99998Z" stroke="white" stroke-width="2" stroke-linecap="round" stroke-linejoin="round"/>
</g>
<defs>
<clipPath id="clip0_119_319">
<rect width="24" height="24" fill="white" transform="translate(0.242676)"/>
</clipPath>
</defs>
</svg>
