<svg width="21" height="21" viewBox="0 0 21 21" fill="none" xmlns="http://www.w3.org/2000/svg">
<g clip-path="url(#clip0_1_41)">
<rect width="20.3081" height="20.3081" transform="translate(0.307404 0.691895)" fill="white"/>
<path d="M19.7693 3.23043C18.959 3.802 18.0618 4.23916 17.1123 4.52507C16.6027 3.93911 15.9254 3.52379 15.1721 3.3353C14.4187 3.1468 13.6257 3.19421 12.9002 3.47113C12.1746 3.74804 11.5517 4.2411 11.1155 4.88361C10.6793 5.52612 10.451 6.28708 10.4614 7.06358V7.90975C8.9744 7.94831 7.50091 7.61851 6.1722 6.94973C4.84349 6.28094 3.7008 5.29393 2.8459 4.0766C2.8459 4.0766 -0.538775 11.6921 7.07675 15.0768C5.33409 16.2597 3.25812 16.8529 1.15356 16.7691C8.76909 21 18.077 16.7691 18.077 7.0382C18.0762 6.8025 18.0535 6.56738 18.0093 6.33588C18.8729 5.4842 19.4823 4.4089 19.7693 3.23043V3.23043Z" stroke="#1C40C9" stroke-width="2" stroke-linecap="round" stroke-linejoin="round"/>
</g>
<defs>
<clipPath id="clip0_1_41">
<rect width="20.3081" height="20.3081" fill="white" transform="translate(0.307404 0.691895)"/>
</clipPath>
</defs>
</svg>
