<svg width="24" height="214" viewBox="0 0 24 214" fill="none" xmlns="http://www.w3.org/2000/svg">
<path d="M12 23L12 96.5" stroke="#D4D4D4"/>
<path d="M12 123L12 191.5" stroke="#D4D4D4"/>
<path d="M22 11.0799V11.9999C21.9988 14.1563 21.3005 16.2545 20.0093 17.9817C18.7182 19.7088 16.9033 20.9723 14.8354 21.5838C12.7674 22.1952 10.5573 22.1218 8.53447 21.3744C6.51168 20.6271 4.78465 19.246 3.61096 17.4369C2.43727 15.6279 1.87979 13.4879 2.02168 11.3362C2.16356 9.18443 2.99721 7.13619 4.39828 5.49694C5.79935 3.85768 7.69279 2.71525 9.79619 2.24001C11.8996 1.76477 14.1003 1.9822 16.07 2.85986" stroke="white" stroke-width="2" stroke-linecap="round" stroke-linejoin="round"/>
<path d="M22 4L12 14.01L9 11.01" stroke="white" stroke-width="2" stroke-linecap="round" stroke-linejoin="round"/>
<path d="M22 106.08V107C21.9988 109.156 21.3005 111.255 20.0093 112.982C18.7182 114.709 16.9033 115.972 14.8354 116.584C12.7674 117.195 10.5573 117.122 8.53447 116.374C6.51168 115.627 4.78465 114.246 3.61096 112.437C2.43727 110.628 1.87979 108.488 2.02168 106.336C2.16356 104.184 2.99721 102.136 4.39828 100.497C5.79935 98.8577 7.69279 97.7152 9.79619 97.24C11.8996 96.7648 14.1003 96.9822 16.07 97.8599" stroke="white" stroke-width="2" stroke-linecap="round" stroke-linejoin="round"/>
<path d="M22 99L12 109.01L9 106.01" stroke="white" stroke-width="2" stroke-linecap="round" stroke-linejoin="round"/>
<path d="M22 201.08V202C21.9988 204.156 21.3005 206.255 20.0093 207.982C18.7182 209.709 16.9033 210.972 14.8354 211.584C12.7674 212.195 10.5573 212.122 8.53447 211.374C6.51168 210.627 4.78465 209.246 3.61096 207.437C2.43727 205.628 1.87979 203.488 2.02168 201.336C2.16356 199.184 2.99721 197.136 4.39828 195.497C5.79935 193.858 7.69279 192.715 9.79619 192.24C11.8996 191.765 14.1003 191.982 16.07 192.86" stroke="white" stroke-width="2" stroke-linecap="round" stroke-linejoin="round"/>
<path d="M22 194L12 204.01L9 201.01" stroke="white" stroke-width="2" stroke-linecap="round" stroke-linejoin="round"/>
</svg>
