<svg width="24" height="215" viewBox="0 0 24 215" fill="none" xmlns="http://www.w3.org/2000/svg">
<path d="M12 23L12 64.5" stroke="#D4D4D4"/>
<path d="M12 87L12 128.5" stroke="#D4D4D4"/>
<path d="M12 151L12 192.5" stroke="#D4D4D4"/>
<path d="M22 11.0799V11.9999C21.9988 14.1563 21.3005 16.2545 20.0093 17.9817C18.7182 19.7088 16.9033 20.9723 14.8354 21.5838C12.7674 22.1952 10.5573 22.1218 8.53447 21.3744C6.51168 20.6271 4.78465 19.246 3.61096 17.4369C2.43727 15.6279 1.87979 13.4879 2.02168 11.3362C2.16356 9.18443 2.99721 7.13619 4.39828 5.49694C5.79935 3.85768 7.69279 2.71525 9.79619 2.24001C11.8996 1.76477 14.1003 1.9822 16.07 2.85986" stroke="white" stroke-width="2" stroke-linecap="round" stroke-linejoin="round"/>
<path d="M22 4L12 14.01L9 11.01" stroke="white" stroke-width="2" stroke-linecap="round" stroke-linejoin="round"/>
<path d="M22 74.0799V74.9999C21.9988 77.1563 21.3005 79.2545 20.0093 80.9817C18.7182 82.7088 16.9033 83.9723 14.8354 84.5838C12.7674 85.1952 10.5573 85.1218 8.53447 84.3744C6.51168 83.6271 4.78465 82.246 3.61096 80.4369C2.43727 78.6279 1.87979 76.4879 2.02168 74.3362C2.16356 72.1844 2.99721 70.1362 4.39828 68.4969C5.79935 66.8577 7.69279 65.7152 9.79619 65.24C11.8996 64.7648 14.1003 64.9822 16.07 65.8599" stroke="white" stroke-width="2" stroke-linecap="round" stroke-linejoin="round"/>
<path d="M22 67L12 77.01L9 74.01" stroke="white" stroke-width="2" stroke-linecap="round" stroke-linejoin="round"/>
<path d="M22 138.08V139C21.9988 141.156 21.3005 143.255 20.0093 144.982C18.7182 146.709 16.9033 147.972 14.8354 148.584C12.7674 149.195 10.5573 149.122 8.53447 148.374C6.51168 147.627 4.78465 146.246 3.61096 144.437C2.43727 142.628 1.87979 140.488 2.02168 138.336C2.16356 136.184 2.99721 134.136 4.39828 132.497C5.79935 130.858 7.69279 129.715 9.79619 129.24C11.8996 128.765 14.1003 128.982 16.07 129.86" stroke="white" stroke-width="2" stroke-linecap="round" stroke-linejoin="round"/>
<path d="M22 131L12 141.01L9 138.01" stroke="white" stroke-width="2" stroke-linecap="round" stroke-linejoin="round"/>
<path d="M22 202.08V203C21.9988 205.156 21.3005 207.255 20.0093 208.982C18.7182 210.709 16.9033 211.972 14.8354 212.584C12.7674 213.195 10.5573 213.122 8.53447 212.374C6.51168 211.627 4.78465 210.246 3.61096 208.437C2.43727 206.628 1.87979 204.488 2.02168 202.336C2.16356 200.184 2.99721 198.136 4.39828 196.497C5.79935 194.858 7.69279 193.715 9.79619 193.24C11.8996 192.765 14.1003 192.982 16.07 193.86" stroke="white" stroke-width="2" stroke-linecap="round" stroke-linejoin="round"/>
<path d="M22 195L12 205.01L9 202.01" stroke="white" stroke-width="2" stroke-linecap="round" stroke-linejoin="round"/>
</svg>
