<svg width="24" height="153" viewBox="0 0 24 153" fill="none" xmlns="http://www.w3.org/2000/svg">
<path d="M12 23L12 131" stroke="#D4D4D4"/>
<path d="M21.1154 11.0799V11.9999C21.1142 14.1563 20.444 16.2545 19.2048 17.9817C17.9655 19.7088 16.2236 20.9723 14.2388 21.5838C12.254 22.1952 10.1327 22.1218 8.19121 21.3744C6.24974 20.6271 4.59214 19.246 3.46563 17.4369C2.33912 15.6279 1.80406 13.4879 1.94024 11.3362C2.07642 9.18443 2.87655 7.13619 4.2213 5.49694C5.56605 3.85768 7.38336 2.71525 9.40221 2.24001C11.4211 1.76477 13.5333 1.9822 15.4238 2.85986" stroke="white" stroke-width="2" stroke-linecap="round" stroke-linejoin="round"/>
<path d="M21.1156 4L11.5176 14.01L8.63818 11.01" stroke="white" stroke-width="2" stroke-linecap="round" stroke-linejoin="round"/>
<path d="M21.1154 140.08V141C21.1142 143.156 20.444 145.255 19.2048 146.982C17.9655 148.709 16.2236 149.972 14.2388 150.584C12.254 151.195 10.1327 151.122 8.19121 150.374C6.24974 149.627 4.59214 148.246 3.46563 146.437C2.33912 144.628 1.80406 142.488 1.94024 140.336C2.07642 138.184 2.87655 136.136 4.2213 134.497C5.56605 132.858 7.38336 131.715 9.40221 131.24C11.4211 130.765 13.5333 130.982 15.4238 131.86" stroke="white" stroke-width="2" stroke-linecap="round" stroke-linejoin="round"/>
<path d="M21.1156 133L11.5176 143.01L8.63818 140.01" stroke="white" stroke-width="2" stroke-linecap="round" stroke-linejoin="round"/>
</svg>
